<mxfile host="app.diagrams.net" agent="Mozilla/5.0 (Linux; Android 10; K) AppleWebKit/537.36 (KHTML, like Gecko) Chrome/129.0.0.0 Mobile Safari/537.36" version="24.7.17">
  <diagram id="BlX71T62XzUumQlUJIqt" name="Diagrama General">
    <mxGraphModel dx="378" dy="2328" grid="1" gridSize="10" guides="1" tooltips="1" connect="1" arrows="1" fold="1" page="1" pageScale="1" pageWidth="1169" pageHeight="827" background="#F1FAEE" math="0" shadow="1">
      <root>
        <mxCell id="0" />
        <mxCell id="1" parent="0" />
        <mxCell id="23kRA0SoKZtKRfZHMwTv-3" value="" style="edgeStyle=orthogonalEdgeStyle;rounded=0;orthogonalLoop=1;jettySize=auto;html=1;curved=1;labelBackgroundColor=#F1FAEE;strokeColor=#457B9D;fontColor=#1D3557;" parent="1" source="23kRA0SoKZtKRfZHMwTv-1" target="23kRA0SoKZtKRfZHMwTv-137" edge="1">
          <mxGeometry relative="1" as="geometry">
            <mxPoint x="399" y="150" as="targetPoint" />
          </mxGeometry>
        </mxCell>
        <mxCell id="23kRA0SoKZtKRfZHMwTv-1" value="Inicio" style="ellipse;whiteSpace=wrap;html=1;fillColor=#A8DADC;strokeColor=#457B9D;fontColor=#1D3557;" parent="1" vertex="1">
          <mxGeometry x="369" y="30" width="60" height="60" as="geometry" />
        </mxCell>
        <mxCell id="23kRA0SoKZtKRfZHMwTv-5" value="" style="edgeStyle=orthogonalEdgeStyle;rounded=0;orthogonalLoop=1;jettySize=auto;html=1;curved=1;labelBackgroundColor=#F1FAEE;strokeColor=#457B9D;fontColor=#1D3557;" parent="1" source="23kRA0SoKZtKRfZHMwTv-26" edge="1">
          <mxGeometry relative="1" as="geometry">
            <mxPoint x="180" y="470" as="targetPoint" />
          </mxGeometry>
        </mxCell>
        <mxCell id="23kRA0SoKZtKRfZHMwTv-57" value="Admin" style="edgeLabel;html=1;align=center;verticalAlign=middle;resizable=0;points=[];fontSize=11;fontFamily=Helvetica;fontColor=#1D3557;" parent="23kRA0SoKZtKRfZHMwTv-5" vertex="1" connectable="0">
          <mxGeometry x="-0.1137" y="8" relative="1" as="geometry">
            <mxPoint x="131" y="-8" as="offset" />
          </mxGeometry>
        </mxCell>
        <mxCell id="23kRA0SoKZtKRfZHMwTv-8" value="" style="edgeStyle=orthogonalEdgeStyle;rounded=0;orthogonalLoop=1;jettySize=auto;html=1;curved=1;labelBackgroundColor=#F1FAEE;strokeColor=#457B9D;fontColor=#1D3557;" parent="1" source="23kRA0SoKZtKRfZHMwTv-26" edge="1">
          <mxGeometry relative="1" as="geometry">
            <mxPoint x="399" y="469" as="targetPoint" />
          </mxGeometry>
        </mxCell>
        <mxCell id="23kRA0SoKZtKRfZHMwTv-56" value="Vendedor" style="edgeLabel;html=1;align=center;verticalAlign=middle;resizable=0;points=[];fontSize=11;fontFamily=Helvetica;fontColor=#1D3557;" parent="23kRA0SoKZtKRfZHMwTv-8" vertex="1" connectable="0">
          <mxGeometry x="-0.2468" relative="1" as="geometry">
            <mxPoint as="offset" />
          </mxGeometry>
        </mxCell>
        <mxCell id="23kRA0SoKZtKRfZHMwTv-9" style="edgeStyle=orthogonalEdgeStyle;rounded=0;orthogonalLoop=1;jettySize=auto;html=1;curved=1;labelBackgroundColor=#F1FAEE;strokeColor=#457B9D;fontColor=#1D3557;" parent="1" source="23kRA0SoKZtKRfZHMwTv-26" edge="1">
          <mxGeometry relative="1" as="geometry">
            <mxPoint x="620" y="470" as="targetPoint" />
          </mxGeometry>
        </mxCell>
        <mxCell id="23kRA0SoKZtKRfZHMwTv-55" value="Cliente" style="edgeLabel;html=1;align=center;verticalAlign=middle;resizable=0;points=[];fontSize=11;fontFamily=Helvetica;fontColor=#1D3557;" parent="23kRA0SoKZtKRfZHMwTv-9" vertex="1" connectable="0">
          <mxGeometry x="-0.1642" y="-6" relative="1" as="geometry">
            <mxPoint x="-173" y="-5" as="offset" />
          </mxGeometry>
        </mxCell>
        <mxCell id="23kRA0SoKZtKRfZHMwTv-140" style="edgeStyle=orthogonalEdgeStyle;shape=connector;curved=1;rounded=1;sketch=0;orthogonalLoop=1;jettySize=auto;html=1;labelBackgroundColor=default;fontFamily=Helvetica;fontSize=11;fontColor=#1D3557;startArrow=none;startFill=0;endArrow=classic;strokeColor=#457B9D;fillColor=#A8DADC;" parent="1" edge="1">
          <mxGeometry relative="1" as="geometry">
            <mxPoint x="705" y="559.0000000000002" as="sourcePoint" />
          </mxGeometry>
        </mxCell>
        <mxCell id="23kRA0SoKZtKRfZHMwTv-26" value="Dependiendo&amp;nbsp;&lt;br&gt;del tipo de cuenta" style="rhombus;whiteSpace=wrap;html=1;rounded=1;sketch=0;fontFamily=Helvetica;fontSize=11;fontColor=#1D3557;strokeColor=#457B9D;fillColor=#A8DADC;" parent="1" vertex="1">
          <mxGeometry x="329" y="343" width="140" height="80" as="geometry" />
        </mxCell>
        <mxCell id="23kRA0SoKZtKRfZHMwTv-156" style="edgeStyle=orthogonalEdgeStyle;shape=connector;curved=1;rounded=1;sketch=0;orthogonalLoop=1;jettySize=auto;html=1;labelBackgroundColor=default;fontFamily=Helvetica;fontSize=11;fontColor=#1D3557;startArrow=none;startFill=0;endArrow=classic;strokeColor=#457B9D;fillColor=#A8DADC;" parent="1" source="23kRA0SoKZtKRfZHMwTv-37" target="23kRA0SoKZtKRfZHMwTv-151" edge="1">
          <mxGeometry relative="1" as="geometry" />
        </mxCell>
        <mxCell id="23kRA0SoKZtKRfZHMwTv-157" value="Get Cuentas" style="edgeLabel;html=1;align=center;verticalAlign=middle;resizable=0;points=[];fontSize=11;fontFamily=Helvetica;fontColor=#1D3557;" parent="23kRA0SoKZtKRfZHMwTv-156" vertex="1" connectable="0">
          <mxGeometry x="-0.2857" y="-1" relative="1" as="geometry">
            <mxPoint x="-5" y="1" as="offset" />
          </mxGeometry>
        </mxCell>
        <mxCell id="23kRA0SoKZtKRfZHMwTv-37" value="Usuarios" style="shape=cylinder3;whiteSpace=wrap;html=1;boundedLbl=1;backgroundOutline=1;size=15;rounded=0;sketch=0;fontFamily=Helvetica;fontSize=11;fontColor=#1D3557;strokeColor=#457B9D;fillColor=#A8DADC;" parent="1" vertex="1">
          <mxGeometry x="745" y="116" width="110" height="80" as="geometry" />
        </mxCell>
        <mxCell id="23kRA0SoKZtKRfZHMwTv-96" value="&lt;font style=&quot;font-size: 24px;&quot;&gt;Afiliarte.com&lt;/font&gt;" style="text;html=1;align=center;verticalAlign=middle;resizable=0;points=[];autosize=1;strokeColor=none;fillColor=none;fontSize=11;fontFamily=Helvetica;fontColor=#1D3557;" parent="1" vertex="1">
          <mxGeometry x="65" y="30" width="150" height="20" as="geometry" />
        </mxCell>
        <mxCell id="23kRA0SoKZtKRfZHMwTv-154" style="edgeStyle=orthogonalEdgeStyle;shape=connector;curved=1;rounded=1;sketch=0;orthogonalLoop=1;jettySize=auto;html=1;labelBackgroundColor=default;fontFamily=Helvetica;fontSize=11;fontColor=#1D3557;startArrow=none;startFill=0;endArrow=classic;strokeColor=#457B9D;fillColor=#A8DADC;" parent="1" source="23kRA0SoKZtKRfZHMwTv-137" target="23kRA0SoKZtKRfZHMwTv-151" edge="1">
          <mxGeometry relative="1" as="geometry" />
        </mxCell>
        <mxCell id="23kRA0SoKZtKRfZHMwTv-155" value="Enviar datos &lt;br&gt;login" style="edgeLabel;html=1;align=center;verticalAlign=middle;resizable=0;points=[];fontSize=11;fontFamily=Helvetica;fontColor=#1D3557;" parent="23kRA0SoKZtKRfZHMwTv-154" vertex="1" connectable="0">
          <mxGeometry x="-0.1247" relative="1" as="geometry">
            <mxPoint as="offset" />
          </mxGeometry>
        </mxCell>
        <mxCell id="23kRA0SoKZtKRfZHMwTv-137" value="Pagina Login" style="rounded=1;whiteSpace=wrap;html=1;shadow=0;glass=0;sketch=0;fontFamily=Helvetica;fontSize=11;fontColor=#1D3557;strokeColor=#457B9D;fillColor=#A8DADC;" parent="1" vertex="1">
          <mxGeometry x="339" y="140" width="120" height="60" as="geometry" />
        </mxCell>
        <mxCell id="23kRA0SoKZtKRfZHMwTv-159" value="" style="edgeStyle=orthogonalEdgeStyle;shape=connector;curved=1;rounded=1;sketch=0;orthogonalLoop=1;jettySize=auto;html=1;labelBackgroundColor=default;fontFamily=Helvetica;fontSize=11;fontColor=#1D3557;startArrow=none;startFill=0;endArrow=classic;strokeColor=#457B9D;fillColor=#A8DADC;" parent="1" source="23kRA0SoKZtKRfZHMwTv-151" target="23kRA0SoKZtKRfZHMwTv-158" edge="1">
          <mxGeometry relative="1" as="geometry" />
        </mxCell>
        <mxCell id="23kRA0SoKZtKRfZHMwTv-151" value="Servidor" style="rounded=1;whiteSpace=wrap;html=1;shadow=0;glass=0;sketch=0;fontFamily=Helvetica;fontSize=11;strokeColor=#b85450;fillColor=#f8cecc;" parent="1" vertex="1">
          <mxGeometry x="540" y="134" width="120" height="60" as="geometry" />
        </mxCell>
        <mxCell id="23kRA0SoKZtKRfZHMwTv-165" value="" style="edgeStyle=orthogonalEdgeStyle;shape=connector;curved=1;rounded=1;sketch=0;orthogonalLoop=1;jettySize=auto;html=1;labelBackgroundColor=default;fontFamily=Helvetica;fontSize=11;fontColor=#1D3557;startArrow=none;startFill=0;endArrow=classic;strokeColor=#457B9D;fillColor=#A8DADC;entryX=0.5;entryY=0;entryDx=0;entryDy=0;" parent="1" source="23kRA0SoKZtKRfZHMwTv-158" target="23kRA0SoKZtKRfZHMwTv-164" edge="1">
          <mxGeometry relative="1" as="geometry" />
        </mxCell>
        <mxCell id="23kRA0SoKZtKRfZHMwTv-167" value="Si" style="edgeLabel;html=1;align=center;verticalAlign=middle;resizable=0;points=[];fontSize=11;fontFamily=Helvetica;fontColor=#1D3557;" parent="23kRA0SoKZtKRfZHMwTv-165" vertex="1" connectable="0">
          <mxGeometry x="0.3406" y="1" relative="1" as="geometry">
            <mxPoint x="88" y="39" as="offset" />
          </mxGeometry>
        </mxCell>
        <mxCell id="23kRA0SoKZtKRfZHMwTv-172" value="" style="edgeStyle=orthogonalEdgeStyle;shape=connector;curved=1;rounded=1;sketch=0;orthogonalLoop=1;jettySize=auto;html=1;labelBackgroundColor=default;fontFamily=Helvetica;fontSize=11;fontColor=#1D3557;startArrow=none;startFill=0;endArrow=classic;strokeColor=#457B9D;fillColor=#A8DADC;" parent="1" source="23kRA0SoKZtKRfZHMwTv-158" target="23kRA0SoKZtKRfZHMwTv-171" edge="1">
          <mxGeometry relative="1" as="geometry" />
        </mxCell>
        <mxCell id="23kRA0SoKZtKRfZHMwTv-204" value="No" style="edgeLabel;html=1;align=center;verticalAlign=middle;resizable=0;points=[];fontSize=11;fontFamily=Helvetica;fontColor=#1D3557;" parent="23kRA0SoKZtKRfZHMwTv-172" vertex="1" connectable="0">
          <mxGeometry x="-0.824" y="-1" relative="1" as="geometry">
            <mxPoint x="11" y="-1" as="offset" />
          </mxGeometry>
        </mxCell>
        <mxCell id="23kRA0SoKZtKRfZHMwTv-158" value="Cuenta existe" style="rhombus;whiteSpace=wrap;html=1;fontSize=11;fillColor=#A8DADC;strokeColor=#457B9D;fontColor=#1D3557;rounded=1;shadow=0;glass=0;sketch=0;" parent="1" vertex="1">
          <mxGeometry x="560" y="220" width="80" height="80" as="geometry" />
        </mxCell>
        <mxCell id="23kRA0SoKZtKRfZHMwTv-168" style="edgeStyle=orthogonalEdgeStyle;shape=connector;curved=1;rounded=1;sketch=0;orthogonalLoop=1;jettySize=auto;html=1;entryX=0;entryY=0.5;entryDx=0;entryDy=0;labelBackgroundColor=default;fontFamily=Helvetica;fontSize=11;fontColor=#1D3557;startArrow=none;startFill=0;endArrow=classic;strokeColor=#457B9D;fillColor=#A8DADC;exitX=0;exitY=0.5;exitDx=0;exitDy=0;" parent="1" source="23kRA0SoKZtKRfZHMwTv-164" target="23kRA0SoKZtKRfZHMwTv-137" edge="1">
          <mxGeometry relative="1" as="geometry" />
        </mxCell>
        <mxCell id="23kRA0SoKZtKRfZHMwTv-169" value="No" style="edgeLabel;html=1;align=center;verticalAlign=middle;resizable=0;points=[];fontSize=11;fontFamily=Helvetica;fontColor=#1D3557;" parent="23kRA0SoKZtKRfZHMwTv-168" vertex="1" connectable="0">
          <mxGeometry x="-0.7898" y="-5" relative="1" as="geometry">
            <mxPoint as="offset" />
          </mxGeometry>
        </mxCell>
        <mxCell id="23kRA0SoKZtKRfZHMwTv-170" value="Si" style="edgeStyle=orthogonalEdgeStyle;shape=connector;curved=1;rounded=1;sketch=0;orthogonalLoop=1;jettySize=auto;html=1;entryX=0.5;entryY=0;entryDx=0;entryDy=0;labelBackgroundColor=default;fontFamily=Helvetica;fontSize=11;fontColor=#1D3557;startArrow=none;startFill=0;endArrow=classic;strokeColor=#457B9D;fillColor=#A8DADC;" parent="1" source="23kRA0SoKZtKRfZHMwTv-164" target="23kRA0SoKZtKRfZHMwTv-26" edge="1">
          <mxGeometry relative="1" as="geometry" />
        </mxCell>
        <mxCell id="23kRA0SoKZtKRfZHMwTv-164" value="Los datos son correctos" style="rhombus;whiteSpace=wrap;html=1;fontSize=11;fillColor=#A8DADC;strokeColor=#457B9D;fontColor=#1D3557;rounded=1;shadow=0;glass=0;sketch=0;" parent="1" vertex="1">
          <mxGeometry x="359" y="240" width="80" height="80" as="geometry" />
        </mxCell>
        <mxCell id="23kRA0SoKZtKRfZHMwTv-173" style="edgeStyle=orthogonalEdgeStyle;shape=connector;curved=1;rounded=1;sketch=0;orthogonalLoop=1;jettySize=auto;html=1;labelBackgroundColor=default;fontFamily=Helvetica;fontSize=11;fontColor=#1D3557;startArrow=none;startFill=0;endArrow=classic;strokeColor=#457B9D;fillColor=#A8DADC;" parent="1" source="23kRA0SoKZtKRfZHMwTv-171" target="23kRA0SoKZtKRfZHMwTv-37" edge="1">
          <mxGeometry relative="1" as="geometry" />
        </mxCell>
        <mxCell id="23kRA0SoKZtKRfZHMwTv-174" value="Set Cuenta" style="edgeLabel;html=1;align=center;verticalAlign=middle;resizable=0;points=[];fontSize=11;fontFamily=Helvetica;fontColor=#1D3557;" parent="23kRA0SoKZtKRfZHMwTv-173" vertex="1" connectable="0">
          <mxGeometry x="-0.1414" relative="1" as="geometry">
            <mxPoint as="offset" />
          </mxGeometry>
        </mxCell>
        <mxCell id="23kRA0SoKZtKRfZHMwTv-185" style="edgeStyle=orthogonalEdgeStyle;shape=connector;curved=1;rounded=1;sketch=0;orthogonalLoop=1;jettySize=auto;html=1;entryX=0.5;entryY=0;entryDx=0;entryDy=0;labelBackgroundColor=default;fontFamily=Helvetica;fontSize=11;fontColor=#1D3557;startArrow=none;startFill=0;endArrow=classic;strokeColor=#457B9D;fillColor=#A8DADC;exitX=1;exitY=0.5;exitDx=0;exitDy=0;" parent="1" source="23kRA0SoKZtKRfZHMwTv-171" target="23kRA0SoKZtKRfZHMwTv-137" edge="1">
          <mxGeometry relative="1" as="geometry">
            <Array as="points">
              <mxPoint x="890" y="260" />
              <mxPoint x="890" y="80" />
              <mxPoint x="399" y="80" />
            </Array>
          </mxGeometry>
        </mxCell>
        <mxCell id="23kRA0SoKZtKRfZHMwTv-171" value="Mostrar&lt;br&gt;Pagina Registro" style="whiteSpace=wrap;html=1;fontSize=11;fillColor=#A8DADC;strokeColor=#457B9D;fontColor=#1D3557;rounded=1;shadow=0;glass=0;sketch=0;" parent="1" vertex="1">
          <mxGeometry x="740" y="230" width="120" height="60" as="geometry" />
        </mxCell>
        <mxCell id="23kRA0SoKZtKRfZHMwTv-243" value="&lt;font style=&quot;font-size: 13px;&quot;&gt;Algoritmo&lt;/font&gt;" style="text;html=1;align=center;verticalAlign=middle;resizable=0;points=[];autosize=1;strokeColor=none;fillColor=none;fontSize=13;fontFamily=Helvetica;fontColor=#1D3557;" parent="1" vertex="1">
          <mxGeometry x="105" y="50" width="70" height="20" as="geometry" />
        </mxCell>
        <mxCell id="23kRA0SoKZtKRfZHMwTv-246" value="Usuarios" style="shape=cylinder3;whiteSpace=wrap;html=1;boundedLbl=1;backgroundOutline=1;size=15;rounded=0;sketch=0;fontFamily=Helvetica;fontSize=11;strokeColor=#b85450;fillColor=#f8cecc;" parent="1" vertex="1">
          <mxGeometry x="745" y="116" width="110" height="80" as="geometry" />
        </mxCell>
        <mxCell id="23kRA0SoKZtKRfZHMwTv-257" value="" style="swimlane;startSize=0;rounded=1;shadow=0;glass=0;sketch=0;fontFamily=Helvetica;fontSize=13;fontColor=#1D3557;strokeColor=#457B9D;fillColor=none;" parent="1" vertex="1">
          <mxGeometry x="930" y="30" width="573" height="125" as="geometry" />
        </mxCell>
        <mxCell id="23kRA0SoKZtKRfZHMwTv-259" value="Almac Servidor" style="shape=cylinder3;whiteSpace=wrap;html=1;boundedLbl=1;backgroundOutline=1;size=15;rounded=0;sketch=0;fontFamily=Helvetica;fontSize=11;strokeColor=#b85450;fillColor=#f8cecc;" parent="23kRA0SoKZtKRfZHMwTv-257" vertex="1">
          <mxGeometry x="416" y="20" width="100" height="80" as="geometry" />
        </mxCell>
        <mxCell id="23kRA0SoKZtKRfZHMwTv-260" value="Decision" style="rhombus;whiteSpace=wrap;html=1;rounded=1;shadow=0;glass=0;sketch=0;fontFamily=Helvetica;fontSize=11;fontColor=#1D3557;strokeColor=#457B9D;fillColor=#A8DADC;" parent="23kRA0SoKZtKRfZHMwTv-257" vertex="1">
          <mxGeometry x="20" y="20" width="80" height="80" as="geometry" />
        </mxCell>
        <mxCell id="23kRA0SoKZtKRfZHMwTv-261" value="Vista de acción unica" style="rounded=1;whiteSpace=wrap;html=1;shadow=0;glass=0;sketch=0;fontFamily=Helvetica;fontSize=11;fontColor=#1D3557;strokeColor=#457B9D;fillColor=#A8DADC;" parent="23kRA0SoKZtKRfZHMwTv-257" vertex="1">
          <mxGeometry x="130" y="30" width="120" height="60" as="geometry" />
        </mxCell>
        <mxCell id="23kRA0SoKZtKRfZHMwTv-264" value="Almac Local" style="shape=cylinder3;whiteSpace=wrap;html=1;boundedLbl=1;backgroundOutline=1;size=15;rounded=0;sketch=0;fontFamily=Helvetica;fontSize=11;fontColor=#1D3557;strokeColor=#457B9D;fillColor=#A8DADC;" parent="23kRA0SoKZtKRfZHMwTv-257" vertex="1">
          <mxGeometry x="280" y="20" width="100" height="80" as="geometry" />
        </mxCell>
        <mxCell id="23kRA0SoKZtKRfZHMwTv-295" value="Usuarios" style="shape=table;startSize=30;container=1;collapsible=1;childLayout=tableLayout;fixedRows=1;rowLines=0;fontStyle=1;align=center;resizeLast=1;rounded=1;shadow=0;glass=0;sketch=0;fontFamily=Helvetica;fontSize=13;strokeColor=#b85450;fillColor=#f8cecc;" parent="1" vertex="1">
          <mxGeometry x="570" y="1110" width="160" height="189" as="geometry" />
        </mxCell>
        <mxCell id="23kRA0SoKZtKRfZHMwTv-296" value="" style="shape=tableRow;horizontal=0;startSize=0;swimlaneHead=0;swimlaneBody=0;fillColor=none;collapsible=0;dropTarget=0;points=[[0,0.5],[1,0.5]];portConstraint=eastwest;top=0;left=0;right=0;bottom=0;rounded=1;shadow=0;glass=0;sketch=0;fontFamily=Helvetica;fontSize=13;fontColor=#1D3557;strokeColor=#457B9D;" parent="23kRA0SoKZtKRfZHMwTv-295" vertex="1">
          <mxGeometry y="30" width="160" height="30" as="geometry" />
        </mxCell>
        <mxCell id="23kRA0SoKZtKRfZHMwTv-297" value="PK" style="shape=partialRectangle;connectable=0;fillColor=none;top=0;left=0;bottom=0;right=0;fontStyle=1;overflow=hidden;rounded=1;shadow=0;glass=0;sketch=0;fontFamily=Helvetica;fontSize=13;fontColor=#1D3557;strokeColor=#457B9D;" parent="23kRA0SoKZtKRfZHMwTv-296" vertex="1">
          <mxGeometry width="60" height="30" as="geometry">
            <mxRectangle width="60" height="30" as="alternateBounds" />
          </mxGeometry>
        </mxCell>
        <mxCell id="23kRA0SoKZtKRfZHMwTv-298" value="n_cuenta" style="shape=partialRectangle;connectable=0;fillColor=none;top=0;left=0;bottom=0;right=0;align=left;spacingLeft=6;fontStyle=5;overflow=hidden;rounded=1;shadow=0;glass=0;sketch=0;fontFamily=Helvetica;fontSize=13;fontColor=#1D3557;strokeColor=#457B9D;" parent="23kRA0SoKZtKRfZHMwTv-296" vertex="1">
          <mxGeometry x="60" width="100" height="30" as="geometry">
            <mxRectangle width="100" height="30" as="alternateBounds" />
          </mxGeometry>
        </mxCell>
        <mxCell id="23kRA0SoKZtKRfZHMwTv-302" value="" style="shape=tableRow;horizontal=0;startSize=0;swimlaneHead=0;swimlaneBody=0;fillColor=none;collapsible=0;dropTarget=0;points=[[0,0.5],[1,0.5]];portConstraint=eastwest;top=0;left=0;right=0;bottom=0;rounded=1;shadow=0;glass=0;sketch=0;fontFamily=Helvetica;fontSize=13;fontColor=#1D3557;strokeColor=#457B9D;" parent="23kRA0SoKZtKRfZHMwTv-295" vertex="1">
          <mxGeometry y="60" width="160" height="30" as="geometry" />
        </mxCell>
        <mxCell id="23kRA0SoKZtKRfZHMwTv-303" value="" style="shape=partialRectangle;connectable=0;fillColor=none;top=0;left=0;bottom=0;right=0;editable=1;overflow=hidden;rounded=1;shadow=0;glass=0;sketch=0;fontFamily=Helvetica;fontSize=13;fontColor=#1D3557;strokeColor=#457B9D;" parent="23kRA0SoKZtKRfZHMwTv-302" vertex="1">
          <mxGeometry width="60" height="30" as="geometry">
            <mxRectangle width="60" height="30" as="alternateBounds" />
          </mxGeometry>
        </mxCell>
        <mxCell id="23kRA0SoKZtKRfZHMwTv-304" value="Tipo" style="shape=partialRectangle;connectable=0;fillColor=none;top=0;left=0;bottom=0;right=0;align=left;spacingLeft=6;overflow=hidden;rounded=1;shadow=0;glass=0;sketch=0;fontFamily=Helvetica;fontSize=13;fontColor=#1D3557;strokeColor=#457B9D;" parent="23kRA0SoKZtKRfZHMwTv-302" vertex="1">
          <mxGeometry x="60" width="100" height="30" as="geometry">
            <mxRectangle width="100" height="30" as="alternateBounds" />
          </mxGeometry>
        </mxCell>
        <mxCell id="23kRA0SoKZtKRfZHMwTv-305" value="" style="shape=tableRow;horizontal=0;startSize=0;swimlaneHead=0;swimlaneBody=0;fillColor=none;collapsible=0;dropTarget=0;points=[[0,0.5],[1,0.5]];portConstraint=eastwest;top=0;left=0;right=0;bottom=0;rounded=1;shadow=0;glass=0;sketch=0;fontFamily=Helvetica;fontSize=13;fontColor=#1D3557;strokeColor=#457B9D;" parent="23kRA0SoKZtKRfZHMwTv-295" vertex="1">
          <mxGeometry y="90" width="160" height="30" as="geometry" />
        </mxCell>
        <mxCell id="23kRA0SoKZtKRfZHMwTv-306" value="" style="shape=partialRectangle;connectable=0;fillColor=none;top=0;left=0;bottom=0;right=0;editable=1;overflow=hidden;rounded=1;shadow=0;glass=0;sketch=0;fontFamily=Helvetica;fontSize=13;fontColor=#1D3557;strokeColor=#457B9D;" parent="23kRA0SoKZtKRfZHMwTv-305" vertex="1">
          <mxGeometry width="60" height="30" as="geometry">
            <mxRectangle width="60" height="30" as="alternateBounds" />
          </mxGeometry>
        </mxCell>
        <mxCell id="23kRA0SoKZtKRfZHMwTv-307" value="Nombe" style="shape=partialRectangle;connectable=0;fillColor=none;top=0;left=0;bottom=0;right=0;align=left;spacingLeft=6;overflow=hidden;rounded=1;shadow=0;glass=0;sketch=0;fontFamily=Helvetica;fontSize=13;fontColor=#1D3557;strokeColor=#457B9D;" parent="23kRA0SoKZtKRfZHMwTv-305" vertex="1">
          <mxGeometry x="60" width="100" height="30" as="geometry">
            <mxRectangle width="100" height="30" as="alternateBounds" />
          </mxGeometry>
        </mxCell>
        <mxCell id="23kRA0SoKZtKRfZHMwTv-328" style="shape=tableRow;horizontal=0;startSize=0;swimlaneHead=0;swimlaneBody=0;fillColor=none;collapsible=0;dropTarget=0;points=[[0,0.5],[1,0.5]];portConstraint=eastwest;top=0;left=0;right=0;bottom=0;rounded=1;shadow=0;glass=0;sketch=0;fontFamily=Helvetica;fontSize=13;fontColor=#1D3557;strokeColor=#457B9D;" parent="23kRA0SoKZtKRfZHMwTv-295" vertex="1">
          <mxGeometry y="120" width="160" height="30" as="geometry" />
        </mxCell>
        <mxCell id="23kRA0SoKZtKRfZHMwTv-329" style="shape=partialRectangle;connectable=0;fillColor=none;top=0;left=0;bottom=0;right=0;editable=1;overflow=hidden;rounded=1;shadow=0;glass=0;sketch=0;fontFamily=Helvetica;fontSize=13;fontColor=#1D3557;strokeColor=#457B9D;" parent="23kRA0SoKZtKRfZHMwTv-328" vertex="1">
          <mxGeometry width="60" height="30" as="geometry">
            <mxRectangle width="60" height="30" as="alternateBounds" />
          </mxGeometry>
        </mxCell>
        <mxCell id="23kRA0SoKZtKRfZHMwTv-330" value="Contraseña" style="shape=partialRectangle;connectable=0;fillColor=none;top=0;left=0;bottom=0;right=0;align=left;spacingLeft=6;overflow=hidden;rounded=1;shadow=0;glass=0;sketch=0;fontFamily=Helvetica;fontSize=13;fontColor=#1D3557;strokeColor=#457B9D;" parent="23kRA0SoKZtKRfZHMwTv-328" vertex="1">
          <mxGeometry x="60" width="100" height="30" as="geometry">
            <mxRectangle width="100" height="30" as="alternateBounds" />
          </mxGeometry>
        </mxCell>
        <mxCell id="23kRA0SoKZtKRfZHMwTv-395" style="shape=tableRow;horizontal=0;startSize=0;swimlaneHead=0;swimlaneBody=0;fillColor=none;collapsible=0;dropTarget=0;points=[[0,0.5],[1,0.5]];portConstraint=eastwest;top=0;left=0;right=0;bottom=0;rounded=1;shadow=0;glass=0;sketch=0;fontFamily=Helvetica;fontSize=13;fontColor=#1D3557;strokeColor=#457B9D;" parent="23kRA0SoKZtKRfZHMwTv-295" vertex="1">
          <mxGeometry y="150" width="160" height="30" as="geometry" />
        </mxCell>
        <mxCell id="23kRA0SoKZtKRfZHMwTv-396" style="shape=partialRectangle;connectable=0;fillColor=none;top=0;left=0;bottom=0;right=0;editable=1;overflow=hidden;rounded=1;shadow=0;glass=0;sketch=0;fontFamily=Helvetica;fontSize=13;fontColor=#1D3557;strokeColor=#457B9D;" parent="23kRA0SoKZtKRfZHMwTv-395" vertex="1">
          <mxGeometry width="60" height="30" as="geometry">
            <mxRectangle width="60" height="30" as="alternateBounds" />
          </mxGeometry>
        </mxCell>
        <mxCell id="23kRA0SoKZtKRfZHMwTv-397" value="E-mail" style="shape=partialRectangle;connectable=0;fillColor=none;top=0;left=0;bottom=0;right=0;align=left;spacingLeft=6;overflow=hidden;rounded=1;shadow=0;glass=0;sketch=0;fontFamily=Helvetica;fontSize=13;fontColor=#1D3557;strokeColor=#457B9D;" parent="23kRA0SoKZtKRfZHMwTv-395" vertex="1">
          <mxGeometry x="60" width="100" height="30" as="geometry">
            <mxRectangle width="100" height="30" as="alternateBounds" />
          </mxGeometry>
        </mxCell>
        <mxCell id="23kRA0SoKZtKRfZHMwTv-331" value="Productos" style="shape=table;startSize=30;container=1;collapsible=1;childLayout=tableLayout;fixedRows=1;rowLines=0;fontStyle=1;align=center;resizeLast=1;rounded=1;shadow=0;glass=0;sketch=0;fontFamily=Helvetica;fontSize=13;strokeColor=#b85450;fillColor=#f8cecc;" parent="1" vertex="1">
          <mxGeometry x="1210" y="1090" width="200" height="219" as="geometry">
            <mxRectangle x="1210" y="960" width="90" height="30" as="alternateBounds" />
          </mxGeometry>
        </mxCell>
        <mxCell id="23kRA0SoKZtKRfZHMwTv-332" value="" style="shape=tableRow;horizontal=0;startSize=0;swimlaneHead=0;swimlaneBody=0;fillColor=none;collapsible=0;dropTarget=0;points=[[0,0.5],[1,0.5]];portConstraint=eastwest;top=0;left=0;right=0;bottom=0;rounded=1;shadow=0;glass=0;sketch=0;fontFamily=Helvetica;fontSize=13;fontColor=#1D3557;strokeColor=#457B9D;" parent="23kRA0SoKZtKRfZHMwTv-331" vertex="1">
          <mxGeometry y="30" width="200" height="30" as="geometry" />
        </mxCell>
        <mxCell id="23kRA0SoKZtKRfZHMwTv-333" value="PK" style="shape=partialRectangle;connectable=0;fillColor=none;top=0;left=0;bottom=0;right=0;fontStyle=1;overflow=hidden;rounded=1;shadow=0;glass=0;sketch=0;fontFamily=Helvetica;fontSize=13;fontColor=#1D3557;strokeColor=#457B9D;" parent="23kRA0SoKZtKRfZHMwTv-332" vertex="1">
          <mxGeometry width="90" height="30" as="geometry">
            <mxRectangle width="90" height="30" as="alternateBounds" />
          </mxGeometry>
        </mxCell>
        <mxCell id="23kRA0SoKZtKRfZHMwTv-334" value="n_producto" style="shape=partialRectangle;connectable=0;fillColor=none;top=0;left=0;bottom=0;right=0;align=left;spacingLeft=6;fontStyle=5;overflow=hidden;rounded=1;shadow=0;glass=0;sketch=0;fontFamily=Helvetica;fontSize=13;fontColor=#1D3557;strokeColor=#457B9D;" parent="23kRA0SoKZtKRfZHMwTv-332" vertex="1">
          <mxGeometry x="90" width="110" height="30" as="geometry">
            <mxRectangle width="110" height="30" as="alternateBounds" />
          </mxGeometry>
        </mxCell>
        <mxCell id="23kRA0SoKZtKRfZHMwTv-411" style="shape=tableRow;horizontal=0;startSize=0;swimlaneHead=0;swimlaneBody=0;fillColor=none;collapsible=0;dropTarget=0;points=[[0,0.5],[1,0.5]];portConstraint=eastwest;top=0;left=0;right=0;bottom=0;rounded=1;shadow=0;glass=0;sketch=0;fontFamily=Helvetica;fontSize=13;fontColor=#1D3557;strokeColor=#457B9D;" parent="23kRA0SoKZtKRfZHMwTv-331" vertex="1">
          <mxGeometry y="60" width="200" height="30" as="geometry" />
        </mxCell>
        <mxCell id="23kRA0SoKZtKRfZHMwTv-412" value="Fk, n_cuenta" style="shape=partialRectangle;connectable=0;fillColor=none;top=0;left=0;bottom=0;right=0;fontStyle=1;overflow=hidden;rounded=1;shadow=0;glass=0;sketch=0;fontFamily=Helvetica;fontSize=13;fontColor=#1D3557;strokeColor=#457B9D;" parent="23kRA0SoKZtKRfZHMwTv-411" vertex="1">
          <mxGeometry width="90" height="30" as="geometry">
            <mxRectangle width="90" height="30" as="alternateBounds" />
          </mxGeometry>
        </mxCell>
        <mxCell id="23kRA0SoKZtKRfZHMwTv-413" value="Tienda" style="shape=partialRectangle;connectable=0;fillColor=none;top=0;left=0;bottom=0;right=0;align=left;spacingLeft=6;fontStyle=5;overflow=hidden;rounded=1;shadow=0;glass=0;sketch=0;fontFamily=Helvetica;fontSize=13;fontColor=#1D3557;strokeColor=#457B9D;" parent="23kRA0SoKZtKRfZHMwTv-411" vertex="1">
          <mxGeometry x="90" width="110" height="30" as="geometry">
            <mxRectangle width="110" height="30" as="alternateBounds" />
          </mxGeometry>
        </mxCell>
        <mxCell id="23kRA0SoKZtKRfZHMwTv-335" value="" style="shape=tableRow;horizontal=0;startSize=0;swimlaneHead=0;swimlaneBody=0;fillColor=none;collapsible=0;dropTarget=0;points=[[0,0.5],[1,0.5]];portConstraint=eastwest;top=0;left=0;right=0;bottom=0;rounded=1;shadow=0;glass=0;sketch=0;fontFamily=Helvetica;fontSize=13;fontColor=#1D3557;strokeColor=#457B9D;" parent="23kRA0SoKZtKRfZHMwTv-331" vertex="1">
          <mxGeometry y="90" width="200" height="30" as="geometry" />
        </mxCell>
        <mxCell id="23kRA0SoKZtKRfZHMwTv-336" value="" style="shape=partialRectangle;connectable=0;fillColor=none;top=0;left=0;bottom=0;right=0;editable=1;overflow=hidden;rounded=1;shadow=0;glass=0;sketch=0;fontFamily=Helvetica;fontSize=13;fontColor=#1D3557;strokeColor=#457B9D;" parent="23kRA0SoKZtKRfZHMwTv-335" vertex="1">
          <mxGeometry width="90" height="30" as="geometry">
            <mxRectangle width="90" height="30" as="alternateBounds" />
          </mxGeometry>
        </mxCell>
        <mxCell id="23kRA0SoKZtKRfZHMwTv-337" value="Tipo" style="shape=partialRectangle;connectable=0;fillColor=none;top=0;left=0;bottom=0;right=0;align=left;spacingLeft=6;overflow=hidden;rounded=1;shadow=0;glass=0;sketch=0;fontFamily=Helvetica;fontSize=13;fontColor=#1D3557;strokeColor=#457B9D;" parent="23kRA0SoKZtKRfZHMwTv-335" vertex="1">
          <mxGeometry x="90" width="110" height="30" as="geometry">
            <mxRectangle width="110" height="30" as="alternateBounds" />
          </mxGeometry>
        </mxCell>
        <mxCell id="23kRA0SoKZtKRfZHMwTv-338" value="" style="shape=tableRow;horizontal=0;startSize=0;swimlaneHead=0;swimlaneBody=0;fillColor=none;collapsible=0;dropTarget=0;points=[[0,0.5],[1,0.5]];portConstraint=eastwest;top=0;left=0;right=0;bottom=0;rounded=1;shadow=0;glass=0;sketch=0;fontFamily=Helvetica;fontSize=13;fontColor=#1D3557;strokeColor=#457B9D;" parent="23kRA0SoKZtKRfZHMwTv-331" vertex="1">
          <mxGeometry y="120" width="200" height="30" as="geometry" />
        </mxCell>
        <mxCell id="23kRA0SoKZtKRfZHMwTv-339" value="" style="shape=partialRectangle;connectable=0;fillColor=none;top=0;left=0;bottom=0;right=0;editable=1;overflow=hidden;rounded=1;shadow=0;glass=0;sketch=0;fontFamily=Helvetica;fontSize=13;fontColor=#1D3557;strokeColor=#457B9D;" parent="23kRA0SoKZtKRfZHMwTv-338" vertex="1">
          <mxGeometry width="90" height="30" as="geometry">
            <mxRectangle width="90" height="30" as="alternateBounds" />
          </mxGeometry>
        </mxCell>
        <mxCell id="23kRA0SoKZtKRfZHMwTv-340" value="Nombe" style="shape=partialRectangle;connectable=0;fillColor=none;top=0;left=0;bottom=0;right=0;align=left;spacingLeft=6;overflow=hidden;rounded=1;shadow=0;glass=0;sketch=0;fontFamily=Helvetica;fontSize=13;fontColor=#1D3557;strokeColor=#457B9D;" parent="23kRA0SoKZtKRfZHMwTv-338" vertex="1">
          <mxGeometry x="90" width="110" height="30" as="geometry">
            <mxRectangle width="110" height="30" as="alternateBounds" />
          </mxGeometry>
        </mxCell>
        <mxCell id="23kRA0SoKZtKRfZHMwTv-341" style="shape=tableRow;horizontal=0;startSize=0;swimlaneHead=0;swimlaneBody=0;fillColor=none;collapsible=0;dropTarget=0;points=[[0,0.5],[1,0.5]];portConstraint=eastwest;top=0;left=0;right=0;bottom=0;rounded=1;shadow=0;glass=0;sketch=0;fontFamily=Helvetica;fontSize=13;fontColor=#1D3557;strokeColor=#457B9D;" parent="23kRA0SoKZtKRfZHMwTv-331" vertex="1">
          <mxGeometry y="150" width="200" height="30" as="geometry" />
        </mxCell>
        <mxCell id="23kRA0SoKZtKRfZHMwTv-342" style="shape=partialRectangle;connectable=0;fillColor=none;top=0;left=0;bottom=0;right=0;editable=1;overflow=hidden;rounded=1;shadow=0;glass=0;sketch=0;fontFamily=Helvetica;fontSize=13;fontColor=#1D3557;strokeColor=#457B9D;" parent="23kRA0SoKZtKRfZHMwTv-341" vertex="1">
          <mxGeometry width="90" height="30" as="geometry">
            <mxRectangle width="90" height="30" as="alternateBounds" />
          </mxGeometry>
        </mxCell>
        <mxCell id="23kRA0SoKZtKRfZHMwTv-343" value="Precio" style="shape=partialRectangle;connectable=0;fillColor=none;top=0;left=0;bottom=0;right=0;align=left;spacingLeft=6;overflow=hidden;rounded=1;shadow=0;glass=0;sketch=0;fontFamily=Helvetica;fontSize=13;fontColor=#1D3557;strokeColor=#457B9D;" parent="23kRA0SoKZtKRfZHMwTv-341" vertex="1">
          <mxGeometry x="90" width="110" height="30" as="geometry">
            <mxRectangle width="110" height="30" as="alternateBounds" />
          </mxGeometry>
        </mxCell>
        <mxCell id="23kRA0SoKZtKRfZHMwTv-404" style="shape=tableRow;horizontal=0;startSize=0;swimlaneHead=0;swimlaneBody=0;fillColor=none;collapsible=0;dropTarget=0;points=[[0,0.5],[1,0.5]];portConstraint=eastwest;top=0;left=0;right=0;bottom=0;rounded=1;shadow=0;glass=0;sketch=0;fontFamily=Helvetica;fontSize=13;fontColor=#1D3557;strokeColor=#457B9D;" parent="23kRA0SoKZtKRfZHMwTv-331" vertex="1">
          <mxGeometry y="180" width="200" height="30" as="geometry" />
        </mxCell>
        <mxCell id="23kRA0SoKZtKRfZHMwTv-405" style="shape=partialRectangle;connectable=0;fillColor=none;top=0;left=0;bottom=0;right=0;editable=1;overflow=hidden;rounded=1;shadow=0;glass=0;sketch=0;fontFamily=Helvetica;fontSize=13;fontColor=#1D3557;strokeColor=#457B9D;" parent="23kRA0SoKZtKRfZHMwTv-404" vertex="1">
          <mxGeometry width="90" height="30" as="geometry">
            <mxRectangle width="90" height="30" as="alternateBounds" />
          </mxGeometry>
        </mxCell>
        <mxCell id="23kRA0SoKZtKRfZHMwTv-406" value="Descripción" style="shape=partialRectangle;connectable=0;fillColor=none;top=0;left=0;bottom=0;right=0;align=left;spacingLeft=6;overflow=hidden;rounded=1;shadow=0;glass=0;sketch=0;fontFamily=Helvetica;fontSize=13;fontColor=#1D3557;strokeColor=#457B9D;" parent="23kRA0SoKZtKRfZHMwTv-404" vertex="1">
          <mxGeometry x="90" width="110" height="30" as="geometry">
            <mxRectangle width="110" height="30" as="alternateBounds" />
          </mxGeometry>
        </mxCell>
        <mxCell id="23kRA0SoKZtKRfZHMwTv-344" value="Suscripciones" style="shape=table;startSize=30;container=1;collapsible=1;childLayout=tableLayout;fixedRows=1;rowLines=0;fontStyle=1;align=center;resizeLast=1;rounded=1;shadow=0;glass=0;sketch=0;fontFamily=Helvetica;fontSize=13;strokeColor=#b85450;fillColor=#f8cecc;" parent="1" vertex="1">
          <mxGeometry x="960" y="940" width="205" height="129" as="geometry">
            <mxRectangle x="1210" y="860" width="90" height="30" as="alternateBounds" />
          </mxGeometry>
        </mxCell>
        <mxCell id="23kRA0SoKZtKRfZHMwTv-345" value="" style="shape=tableRow;horizontal=0;startSize=0;swimlaneHead=0;swimlaneBody=0;fillColor=none;collapsible=0;dropTarget=0;points=[[0,0.5],[1,0.5]];portConstraint=eastwest;top=0;left=0;right=0;bottom=0;rounded=1;shadow=0;glass=0;sketch=0;fontFamily=Helvetica;fontSize=13;fontColor=#1D3557;strokeColor=#457B9D;" parent="23kRA0SoKZtKRfZHMwTv-344" vertex="1">
          <mxGeometry y="30" width="205" height="30" as="geometry" />
        </mxCell>
        <mxCell id="23kRA0SoKZtKRfZHMwTv-346" value="PK" style="shape=partialRectangle;connectable=0;fillColor=none;top=0;left=0;bottom=0;right=0;fontStyle=1;overflow=hidden;rounded=1;shadow=0;glass=0;sketch=0;fontFamily=Helvetica;fontSize=13;fontColor=#1D3557;strokeColor=#457B9D;" parent="23kRA0SoKZtKRfZHMwTv-345" vertex="1">
          <mxGeometry width="100" height="30" as="geometry">
            <mxRectangle width="100" height="30" as="alternateBounds" />
          </mxGeometry>
        </mxCell>
        <mxCell id="23kRA0SoKZtKRfZHMwTv-347" value="n_suscripcion" style="shape=partialRectangle;connectable=0;fillColor=none;top=0;left=0;bottom=0;right=0;align=left;spacingLeft=6;fontStyle=5;overflow=hidden;rounded=1;shadow=0;glass=0;sketch=0;fontFamily=Helvetica;fontSize=13;fontColor=#1D3557;strokeColor=#457B9D;" parent="23kRA0SoKZtKRfZHMwTv-345" vertex="1">
          <mxGeometry x="100" width="105" height="30" as="geometry">
            <mxRectangle width="105" height="30" as="alternateBounds" />
          </mxGeometry>
        </mxCell>
        <mxCell id="23kRA0SoKZtKRfZHMwTv-383" style="shape=tableRow;horizontal=0;startSize=0;swimlaneHead=0;swimlaneBody=0;fillColor=none;collapsible=0;dropTarget=0;points=[[0,0.5],[1,0.5]];portConstraint=eastwest;top=0;left=0;right=0;bottom=0;rounded=1;shadow=0;glass=0;sketch=0;fontFamily=Helvetica;fontSize=13;fontColor=#1D3557;strokeColor=#457B9D;" parent="23kRA0SoKZtKRfZHMwTv-344" vertex="1">
          <mxGeometry y="60" width="205" height="30" as="geometry" />
        </mxCell>
        <mxCell id="23kRA0SoKZtKRfZHMwTv-384" value="Fk, n_cuenta" style="shape=partialRectangle;connectable=0;fillColor=none;top=0;left=0;bottom=0;right=0;fontStyle=1;overflow=hidden;rounded=1;shadow=0;glass=0;sketch=0;fontFamily=Helvetica;fontSize=13;fontColor=#1D3557;strokeColor=#457B9D;" parent="23kRA0SoKZtKRfZHMwTv-383" vertex="1">
          <mxGeometry width="100" height="30" as="geometry">
            <mxRectangle width="100" height="30" as="alternateBounds" />
          </mxGeometry>
        </mxCell>
        <mxCell id="23kRA0SoKZtKRfZHMwTv-385" value="Suscriptor" style="shape=partialRectangle;connectable=0;fillColor=none;top=0;left=0;bottom=0;right=0;align=left;spacingLeft=6;fontStyle=5;overflow=hidden;rounded=1;shadow=0;glass=0;sketch=0;fontFamily=Helvetica;fontSize=13;fontColor=#1D3557;strokeColor=#457B9D;" parent="23kRA0SoKZtKRfZHMwTv-383" vertex="1">
          <mxGeometry x="100" width="105" height="30" as="geometry">
            <mxRectangle width="105" height="30" as="alternateBounds" />
          </mxGeometry>
        </mxCell>
        <mxCell id="23kRA0SoKZtKRfZHMwTv-389" style="shape=tableRow;horizontal=0;startSize=0;swimlaneHead=0;swimlaneBody=0;fillColor=none;collapsible=0;dropTarget=0;points=[[0,0.5],[1,0.5]];portConstraint=eastwest;top=0;left=0;right=0;bottom=0;rounded=1;shadow=0;glass=0;sketch=0;fontFamily=Helvetica;fontSize=13;fontColor=#1D3557;strokeColor=#457B9D;" parent="23kRA0SoKZtKRfZHMwTv-344" vertex="1">
          <mxGeometry y="90" width="205" height="30" as="geometry" />
        </mxCell>
        <mxCell id="23kRA0SoKZtKRfZHMwTv-390" value="Fk, n_cuenta" style="shape=partialRectangle;connectable=0;fillColor=none;top=0;left=0;bottom=0;right=0;fontStyle=1;overflow=hidden;rounded=1;shadow=0;glass=0;sketch=0;fontFamily=Helvetica;fontSize=13;fontColor=#1D3557;strokeColor=#457B9D;" parent="23kRA0SoKZtKRfZHMwTv-389" vertex="1">
          <mxGeometry width="100" height="30" as="geometry">
            <mxRectangle width="100" height="30" as="alternateBounds" />
          </mxGeometry>
        </mxCell>
        <mxCell id="23kRA0SoKZtKRfZHMwTv-391" value="Tienda" style="shape=partialRectangle;connectable=0;fillColor=none;top=0;left=0;bottom=0;right=0;align=left;spacingLeft=6;fontStyle=5;overflow=hidden;rounded=1;shadow=0;glass=0;sketch=0;fontFamily=Helvetica;fontSize=13;fontColor=#1D3557;strokeColor=#457B9D;" parent="23kRA0SoKZtKRfZHMwTv-389" vertex="1">
          <mxGeometry x="100" width="105" height="30" as="geometry">
            <mxRectangle width="105" height="30" as="alternateBounds" />
          </mxGeometry>
        </mxCell>
        <mxCell id="23kRA0SoKZtKRfZHMwTv-357" value="Afiliados" style="shape=table;startSize=30;container=1;collapsible=1;childLayout=tableLayout;fixedRows=1;rowLines=0;fontStyle=1;align=center;resizeLast=1;rounded=1;shadow=0;glass=0;sketch=0;fontFamily=Helvetica;fontSize=13;strokeColor=#b85450;fillColor=#f8cecc;" parent="1" vertex="1">
          <mxGeometry x="950" y="1255" width="210" height="159" as="geometry">
            <mxRectangle x="1210" y="1060" width="90" height="30" as="alternateBounds" />
          </mxGeometry>
        </mxCell>
        <mxCell id="23kRA0SoKZtKRfZHMwTv-358" value="" style="shape=tableRow;horizontal=0;startSize=0;swimlaneHead=0;swimlaneBody=0;fillColor=none;collapsible=0;dropTarget=0;points=[[0,0.5],[1,0.5]];portConstraint=eastwest;top=0;left=0;right=0;bottom=0;rounded=1;shadow=0;glass=0;sketch=0;fontFamily=Helvetica;fontSize=13;fontColor=#1D3557;strokeColor=#457B9D;" parent="23kRA0SoKZtKRfZHMwTv-357" vertex="1">
          <mxGeometry y="30" width="210" height="30" as="geometry" />
        </mxCell>
        <mxCell id="23kRA0SoKZtKRfZHMwTv-359" value="PK" style="shape=partialRectangle;connectable=0;fillColor=none;top=0;left=0;bottom=0;right=0;fontStyle=1;overflow=hidden;rounded=1;shadow=0;glass=0;sketch=0;fontFamily=Helvetica;fontSize=13;fontColor=#1D3557;strokeColor=#457B9D;" parent="23kRA0SoKZtKRfZHMwTv-358" vertex="1">
          <mxGeometry width="90" height="30" as="geometry">
            <mxRectangle width="90" height="30" as="alternateBounds" />
          </mxGeometry>
        </mxCell>
        <mxCell id="23kRA0SoKZtKRfZHMwTv-360" value="nro_afiliacion" style="shape=partialRectangle;connectable=0;fillColor=none;top=0;left=0;bottom=0;right=0;align=left;spacingLeft=6;fontStyle=5;overflow=hidden;rounded=1;shadow=0;glass=0;sketch=0;fontFamily=Helvetica;fontSize=13;fontColor=#1D3557;strokeColor=#457B9D;" parent="23kRA0SoKZtKRfZHMwTv-358" vertex="1">
          <mxGeometry x="90" width="120" height="30" as="geometry">
            <mxRectangle width="120" height="30" as="alternateBounds" />
          </mxGeometry>
        </mxCell>
        <mxCell id="23kRA0SoKZtKRfZHMwTv-361" value="" style="shape=tableRow;horizontal=0;startSize=0;swimlaneHead=0;swimlaneBody=0;fillColor=none;collapsible=0;dropTarget=0;points=[[0,0.5],[1,0.5]];portConstraint=eastwest;top=0;left=0;right=0;bottom=0;rounded=1;shadow=0;glass=0;sketch=0;fontFamily=Helvetica;fontSize=13;fontColor=#1D3557;strokeColor=#457B9D;fontStyle=5" parent="23kRA0SoKZtKRfZHMwTv-357" vertex="1">
          <mxGeometry y="60" width="210" height="30" as="geometry" />
        </mxCell>
        <mxCell id="23kRA0SoKZtKRfZHMwTv-362" value="Fk, n_cuenta" style="shape=partialRectangle;connectable=0;fillColor=none;top=0;left=0;bottom=0;right=0;editable=1;overflow=hidden;rounded=1;shadow=0;glass=0;sketch=0;fontFamily=Helvetica;fontSize=13;fontColor=#1D3557;strokeColor=#457B9D;fontStyle=5" parent="23kRA0SoKZtKRfZHMwTv-361" vertex="1">
          <mxGeometry width="90" height="30" as="geometry">
            <mxRectangle width="90" height="30" as="alternateBounds" />
          </mxGeometry>
        </mxCell>
        <mxCell id="23kRA0SoKZtKRfZHMwTv-363" value="afiliado" style="shape=partialRectangle;connectable=0;fillColor=none;top=0;left=0;bottom=0;right=0;align=left;spacingLeft=6;overflow=hidden;rounded=1;shadow=0;glass=0;sketch=0;fontFamily=Helvetica;fontSize=13;fontColor=#1D3557;strokeColor=#457B9D;fontStyle=5" parent="23kRA0SoKZtKRfZHMwTv-361" vertex="1">
          <mxGeometry x="90" width="120" height="30" as="geometry">
            <mxRectangle width="120" height="30" as="alternateBounds" />
          </mxGeometry>
        </mxCell>
        <mxCell id="23kRA0SoKZtKRfZHMwTv-364" value="" style="shape=tableRow;horizontal=0;startSize=0;swimlaneHead=0;swimlaneBody=0;fillColor=none;collapsible=0;dropTarget=0;points=[[0,0.5],[1,0.5]];portConstraint=eastwest;top=0;left=0;right=0;bottom=0;rounded=1;shadow=0;glass=0;sketch=0;fontFamily=Helvetica;fontSize=13;fontColor=#1D3557;strokeColor=#457B9D;" parent="23kRA0SoKZtKRfZHMwTv-357" vertex="1">
          <mxGeometry y="90" width="210" height="30" as="geometry" />
        </mxCell>
        <mxCell id="23kRA0SoKZtKRfZHMwTv-365" value="" style="shape=partialRectangle;connectable=0;fillColor=none;top=0;left=0;bottom=0;right=0;editable=1;overflow=hidden;rounded=1;shadow=0;glass=0;sketch=0;fontFamily=Helvetica;fontSize=13;fontColor=#1D3557;strokeColor=#457B9D;" parent="23kRA0SoKZtKRfZHMwTv-364" vertex="1">
          <mxGeometry width="90" height="30" as="geometry">
            <mxRectangle width="90" height="30" as="alternateBounds" />
          </mxGeometry>
        </mxCell>
        <mxCell id="23kRA0SoKZtKRfZHMwTv-366" value="Invitado" style="shape=partialRectangle;connectable=0;fillColor=none;top=0;left=0;bottom=0;right=0;align=left;spacingLeft=6;overflow=hidden;rounded=1;shadow=0;glass=0;sketch=0;fontFamily=Helvetica;fontSize=13;fontColor=#1D3557;strokeColor=#457B9D;" parent="23kRA0SoKZtKRfZHMwTv-364" vertex="1">
          <mxGeometry x="90" width="120" height="30" as="geometry">
            <mxRectangle width="120" height="30" as="alternateBounds" />
          </mxGeometry>
        </mxCell>
        <mxCell id="23kRA0SoKZtKRfZHMwTv-367" style="shape=tableRow;horizontal=0;startSize=0;swimlaneHead=0;swimlaneBody=0;fillColor=none;collapsible=0;dropTarget=0;points=[[0,0.5],[1,0.5]];portConstraint=eastwest;top=0;left=0;right=0;bottom=0;rounded=1;shadow=0;glass=0;sketch=0;fontFamily=Helvetica;fontSize=13;fontColor=#1D3557;strokeColor=#457B9D;" parent="23kRA0SoKZtKRfZHMwTv-357" vertex="1">
          <mxGeometry y="120" width="210" height="30" as="geometry" />
        </mxCell>
        <mxCell id="23kRA0SoKZtKRfZHMwTv-368" style="shape=partialRectangle;connectable=0;fillColor=none;top=0;left=0;bottom=0;right=0;editable=1;overflow=hidden;rounded=1;shadow=0;glass=0;sketch=0;fontFamily=Helvetica;fontSize=13;fontColor=#1D3557;strokeColor=#457B9D;" parent="23kRA0SoKZtKRfZHMwTv-367" vertex="1">
          <mxGeometry width="90" height="30" as="geometry">
            <mxRectangle width="90" height="30" as="alternateBounds" />
          </mxGeometry>
        </mxCell>
        <mxCell id="23kRA0SoKZtKRfZHMwTv-369" value="tienda" style="shape=partialRectangle;connectable=0;fillColor=none;top=0;left=0;bottom=0;right=0;align=left;spacingLeft=6;overflow=hidden;rounded=1;shadow=0;glass=0;sketch=0;fontFamily=Helvetica;fontSize=13;fontColor=#1D3557;strokeColor=#457B9D;" parent="23kRA0SoKZtKRfZHMwTv-367" vertex="1">
          <mxGeometry x="90" width="120" height="30" as="geometry">
            <mxRectangle width="120" height="30" as="alternateBounds" />
          </mxGeometry>
        </mxCell>
        <mxCell id="23kRA0SoKZtKRfZHMwTv-370" value="Registro de Compras" style="shape=table;startSize=30;container=1;collapsible=1;childLayout=tableLayout;fixedRows=1;rowLines=0;fontStyle=1;align=center;resizeLast=1;rounded=1;shadow=0;glass=0;sketch=0;fontFamily=Helvetica;fontSize=13;strokeColor=#b85450;fillColor=#f8cecc;" parent="1" vertex="1">
          <mxGeometry x="1180" y="1425" width="160" height="159" as="geometry">
            <mxRectangle x="1210" y="1145" width="140" height="30" as="alternateBounds" />
          </mxGeometry>
        </mxCell>
        <mxCell id="23kRA0SoKZtKRfZHMwTv-371" value="" style="shape=tableRow;horizontal=0;startSize=0;swimlaneHead=0;swimlaneBody=0;fillColor=none;collapsible=0;dropTarget=0;points=[[0,0.5],[1,0.5]];portConstraint=eastwest;top=0;left=0;right=0;bottom=0;rounded=1;shadow=0;glass=0;sketch=0;fontFamily=Helvetica;fontSize=13;fontColor=#1D3557;strokeColor=#457B9D;" parent="23kRA0SoKZtKRfZHMwTv-370" vertex="1">
          <mxGeometry y="30" width="160" height="30" as="geometry" />
        </mxCell>
        <mxCell id="23kRA0SoKZtKRfZHMwTv-372" value="PK" style="shape=partialRectangle;connectable=0;fillColor=none;top=0;left=0;bottom=0;right=0;fontStyle=1;overflow=hidden;rounded=1;shadow=0;glass=0;sketch=0;fontFamily=Helvetica;fontSize=13;fontColor=#1D3557;strokeColor=#457B9D;" parent="23kRA0SoKZtKRfZHMwTv-371" vertex="1">
          <mxGeometry width="60" height="30" as="geometry">
            <mxRectangle width="60" height="30" as="alternateBounds" />
          </mxGeometry>
        </mxCell>
        <mxCell id="23kRA0SoKZtKRfZHMwTv-373" value="Id" style="shape=partialRectangle;connectable=0;fillColor=none;top=0;left=0;bottom=0;right=0;align=left;spacingLeft=6;fontStyle=5;overflow=hidden;rounded=1;shadow=0;glass=0;sketch=0;fontFamily=Helvetica;fontSize=13;fontColor=#1D3557;strokeColor=#457B9D;" parent="23kRA0SoKZtKRfZHMwTv-371" vertex="1">
          <mxGeometry x="60" width="100" height="30" as="geometry">
            <mxRectangle width="100" height="30" as="alternateBounds" />
          </mxGeometry>
        </mxCell>
        <mxCell id="23kRA0SoKZtKRfZHMwTv-374" value="" style="shape=tableRow;horizontal=0;startSize=0;swimlaneHead=0;swimlaneBody=0;fillColor=none;collapsible=0;dropTarget=0;points=[[0,0.5],[1,0.5]];portConstraint=eastwest;top=0;left=0;right=0;bottom=0;rounded=1;shadow=0;glass=0;sketch=0;fontFamily=Helvetica;fontSize=13;fontColor=#1D3557;strokeColor=#457B9D;" parent="23kRA0SoKZtKRfZHMwTv-370" vertex="1">
          <mxGeometry y="60" width="160" height="30" as="geometry" />
        </mxCell>
        <mxCell id="23kRA0SoKZtKRfZHMwTv-375" value="" style="shape=partialRectangle;connectable=0;fillColor=none;top=0;left=0;bottom=0;right=0;editable=1;overflow=hidden;rounded=1;shadow=0;glass=0;sketch=0;fontFamily=Helvetica;fontSize=13;fontColor=#1D3557;strokeColor=#457B9D;" parent="23kRA0SoKZtKRfZHMwTv-374" vertex="1">
          <mxGeometry width="60" height="30" as="geometry">
            <mxRectangle width="60" height="30" as="alternateBounds" />
          </mxGeometry>
        </mxCell>
        <mxCell id="23kRA0SoKZtKRfZHMwTv-376" value="Tipo" style="shape=partialRectangle;connectable=0;fillColor=none;top=0;left=0;bottom=0;right=0;align=left;spacingLeft=6;overflow=hidden;rounded=1;shadow=0;glass=0;sketch=0;fontFamily=Helvetica;fontSize=13;fontColor=#1D3557;strokeColor=#457B9D;" parent="23kRA0SoKZtKRfZHMwTv-374" vertex="1">
          <mxGeometry x="60" width="100" height="30" as="geometry">
            <mxRectangle width="100" height="30" as="alternateBounds" />
          </mxGeometry>
        </mxCell>
        <mxCell id="23kRA0SoKZtKRfZHMwTv-377" value="" style="shape=tableRow;horizontal=0;startSize=0;swimlaneHead=0;swimlaneBody=0;fillColor=none;collapsible=0;dropTarget=0;points=[[0,0.5],[1,0.5]];portConstraint=eastwest;top=0;left=0;right=0;bottom=0;rounded=1;shadow=0;glass=0;sketch=0;fontFamily=Helvetica;fontSize=13;fontColor=#1D3557;strokeColor=#457B9D;" parent="23kRA0SoKZtKRfZHMwTv-370" vertex="1">
          <mxGeometry y="90" width="160" height="30" as="geometry" />
        </mxCell>
        <mxCell id="23kRA0SoKZtKRfZHMwTv-378" value="" style="shape=partialRectangle;connectable=0;fillColor=none;top=0;left=0;bottom=0;right=0;editable=1;overflow=hidden;rounded=1;shadow=0;glass=0;sketch=0;fontFamily=Helvetica;fontSize=13;fontColor=#1D3557;strokeColor=#457B9D;" parent="23kRA0SoKZtKRfZHMwTv-377" vertex="1">
          <mxGeometry width="60" height="30" as="geometry">
            <mxRectangle width="60" height="30" as="alternateBounds" />
          </mxGeometry>
        </mxCell>
        <mxCell id="23kRA0SoKZtKRfZHMwTv-379" value="Nombe" style="shape=partialRectangle;connectable=0;fillColor=none;top=0;left=0;bottom=0;right=0;align=left;spacingLeft=6;overflow=hidden;rounded=1;shadow=0;glass=0;sketch=0;fontFamily=Helvetica;fontSize=13;fontColor=#1D3557;strokeColor=#457B9D;" parent="23kRA0SoKZtKRfZHMwTv-377" vertex="1">
          <mxGeometry x="60" width="100" height="30" as="geometry">
            <mxRectangle width="100" height="30" as="alternateBounds" />
          </mxGeometry>
        </mxCell>
        <mxCell id="23kRA0SoKZtKRfZHMwTv-380" style="shape=tableRow;horizontal=0;startSize=0;swimlaneHead=0;swimlaneBody=0;fillColor=none;collapsible=0;dropTarget=0;points=[[0,0.5],[1,0.5]];portConstraint=eastwest;top=0;left=0;right=0;bottom=0;rounded=1;shadow=0;glass=0;sketch=0;fontFamily=Helvetica;fontSize=13;fontColor=#1D3557;strokeColor=#457B9D;" parent="23kRA0SoKZtKRfZHMwTv-370" vertex="1">
          <mxGeometry y="120" width="160" height="30" as="geometry" />
        </mxCell>
        <mxCell id="23kRA0SoKZtKRfZHMwTv-381" style="shape=partialRectangle;connectable=0;fillColor=none;top=0;left=0;bottom=0;right=0;editable=1;overflow=hidden;rounded=1;shadow=0;glass=0;sketch=0;fontFamily=Helvetica;fontSize=13;fontColor=#1D3557;strokeColor=#457B9D;" parent="23kRA0SoKZtKRfZHMwTv-380" vertex="1">
          <mxGeometry width="60" height="30" as="geometry">
            <mxRectangle width="60" height="30" as="alternateBounds" />
          </mxGeometry>
        </mxCell>
        <mxCell id="23kRA0SoKZtKRfZHMwTv-382" value="Contraseña" style="shape=partialRectangle;connectable=0;fillColor=none;top=0;left=0;bottom=0;right=0;align=left;spacingLeft=6;overflow=hidden;rounded=1;shadow=0;glass=0;sketch=0;fontFamily=Helvetica;fontSize=13;fontColor=#1D3557;strokeColor=#457B9D;" parent="23kRA0SoKZtKRfZHMwTv-380" vertex="1">
          <mxGeometry x="60" width="100" height="30" as="geometry">
            <mxRectangle width="100" height="30" as="alternateBounds" />
          </mxGeometry>
        </mxCell>
        <mxCell id="23kRA0SoKZtKRfZHMwTv-416" value="" style="edgeStyle=entityRelationEdgeStyle;fontSize=12;html=1;endArrow=ERoneToMany;rounded=1;labelBackgroundColor=default;sketch=0;fontFamily=Helvetica;fontColor=#1D3557;strokeColor=#457B9D;fillColor=#A8DADC;shape=connector;curved=1;exitX=1;exitY=0.5;exitDx=0;exitDy=0;entryX=0;entryY=0.5;entryDx=0;entryDy=0;" parent="1" source="23kRA0SoKZtKRfZHMwTv-296" target="23kRA0SoKZtKRfZHMwTv-411" edge="1">
          <mxGeometry width="100" height="100" relative="1" as="geometry">
            <mxPoint x="860" y="1180" as="sourcePoint" />
            <mxPoint x="960" y="1080" as="targetPoint" />
          </mxGeometry>
        </mxCell>
        <mxCell id="23kRA0SoKZtKRfZHMwTv-417" value="" style="edgeStyle=entityRelationEdgeStyle;fontSize=12;html=1;endArrow=ERmandOne;startArrow=ERmandOne;rounded=1;labelBackgroundColor=default;sketch=0;fontFamily=Helvetica;fontColor=#1D3557;strokeColor=#457B9D;fillColor=#A8DADC;shape=connector;curved=1;exitX=1;exitY=0.5;exitDx=0;exitDy=0;entryX=0;entryY=0.5;entryDx=0;entryDy=0;" parent="1" source="23kRA0SoKZtKRfZHMwTv-296" target="23kRA0SoKZtKRfZHMwTv-383" edge="1">
          <mxGeometry width="100" height="100" relative="1" as="geometry">
            <mxPoint x="880" y="1170" as="sourcePoint" />
            <mxPoint x="980" y="1070" as="targetPoint" />
          </mxGeometry>
        </mxCell>
        <mxCell id="23kRA0SoKZtKRfZHMwTv-418" value="" style="edgeStyle=entityRelationEdgeStyle;fontSize=12;html=1;endArrow=ERmandOne;startArrow=ERmandOne;rounded=1;labelBackgroundColor=default;sketch=0;fontFamily=Helvetica;fontColor=#1D3557;strokeColor=#457B9D;fillColor=#A8DADC;shape=connector;curved=1;exitX=1;exitY=0.5;exitDx=0;exitDy=0;entryX=0;entryY=0.5;entryDx=0;entryDy=0;" parent="1" source="23kRA0SoKZtKRfZHMwTv-296" target="23kRA0SoKZtKRfZHMwTv-389" edge="1">
          <mxGeometry width="100" height="100" relative="1" as="geometry">
            <mxPoint x="880" y="1170" as="sourcePoint" />
            <mxPoint x="980" y="1070" as="targetPoint" />
          </mxGeometry>
        </mxCell>
        <mxCell id="iJSVFIf_66AhkaE6YLph-1" value="&lt;font style=&quot;font-size: 24px;&quot;&gt;Afiliarte.com&lt;/font&gt;" style="text;html=1;align=center;verticalAlign=middle;resizable=0;points=[];autosize=1;strokeColor=none;fillColor=none;fontSize=11;fontFamily=Helvetica;fontColor=#1D3557;" parent="1" vertex="1">
          <mxGeometry x="50" y="870" width="150" height="20" as="geometry" />
        </mxCell>
        <mxCell id="iJSVFIf_66AhkaE6YLph-2" value="&lt;font style=&quot;font-size: 13px;&quot;&gt;Base de datos&lt;/font&gt;" style="text;html=1;align=center;verticalAlign=middle;resizable=0;points=[];autosize=1;strokeColor=none;fillColor=none;fontSize=13;fontFamily=Helvetica;fontColor=#1D3557;" parent="1" vertex="1">
          <mxGeometry x="75" y="890" width="100" height="20" as="geometry" />
        </mxCell>
        <mxCell id="iJSVFIf_66AhkaE6YLph-3" value="&lt;font style=&quot;font-size: 24px;&quot;&gt;Compartienda.com&lt;/font&gt;" style="text;html=1;align=center;verticalAlign=middle;resizable=0;points=[];autosize=1;strokeColor=none;fillColor=none;fontSize=11;fontFamily=Helvetica;fontColor=#1D3557;" parent="1" vertex="1">
          <mxGeometry x="15" y="-790" width="220" height="20" as="geometry" />
        </mxCell>
        <mxCell id="iJSVFIf_66AhkaE6YLph-4" value="&lt;font style=&quot;font-size: 13px;&quot;&gt;Boceto&lt;/font&gt;" style="text;html=1;align=center;verticalAlign=middle;resizable=0;points=[];autosize=1;strokeColor=none;fillColor=none;fontSize=13;fontFamily=Helvetica;fontColor=#1D3557;" parent="1" vertex="1">
          <mxGeometry x="95" y="-770" width="60" height="20" as="geometry" />
        </mxCell>
        <mxCell id="4oy-zTbJ77d2xvRVHOVI-46" value="Plantilla" style="text;html=1;align=center;verticalAlign=middle;resizable=0;points=[];autosize=1;strokeColor=none;fillColor=none;" parent="1" vertex="1">
          <mxGeometry x="260" y="-810" width="60" height="20" as="geometry" />
        </mxCell>
        <mxCell id="4oy-zTbJ77d2xvRVHOVI-47" value="Usuarios" style="shape=table;startSize=30;container=1;collapsible=1;childLayout=tableLayout;fixedRows=1;rowLines=0;fontStyle=1;align=center;resizeLast=1;" parent="1" vertex="1">
          <mxGeometry x="369" y="-590" width="180" height="250" as="geometry" />
        </mxCell>
        <mxCell id="4oy-zTbJ77d2xvRVHOVI-48" value="" style="shape=tableRow;horizontal=0;startSize=0;swimlaneHead=0;swimlaneBody=0;fillColor=none;collapsible=0;dropTarget=0;points=[[0,0.5],[1,0.5]];portConstraint=eastwest;top=0;left=0;right=0;bottom=0;" parent="4oy-zTbJ77d2xvRVHOVI-47" vertex="1">
          <mxGeometry y="30" width="180" height="30" as="geometry" />
        </mxCell>
        <mxCell id="4oy-zTbJ77d2xvRVHOVI-49" value="PK, Int" style="shape=partialRectangle;connectable=0;fillColor=none;top=0;left=0;bottom=0;right=0;fontStyle=1;overflow=hidden;" parent="4oy-zTbJ77d2xvRVHOVI-48" vertex="1">
          <mxGeometry width="80" height="30" as="geometry">
            <mxRectangle width="80" height="30" as="alternateBounds" />
          </mxGeometry>
        </mxCell>
        <mxCell id="4oy-zTbJ77d2xvRVHOVI-50" value="IdUsuario" style="shape=partialRectangle;connectable=0;fillColor=none;top=0;left=0;bottom=0;right=0;align=left;spacingLeft=6;fontStyle=5;overflow=hidden;" parent="4oy-zTbJ77d2xvRVHOVI-48" vertex="1">
          <mxGeometry x="80" width="100" height="30" as="geometry">
            <mxRectangle width="100" height="30" as="alternateBounds" />
          </mxGeometry>
        </mxCell>
        <mxCell id="4oy-zTbJ77d2xvRVHOVI-51" value="" style="shape=tableRow;horizontal=0;startSize=0;swimlaneHead=0;swimlaneBody=0;fillColor=none;collapsible=0;dropTarget=0;points=[[0,0.5],[1,0.5]];portConstraint=eastwest;top=0;left=0;right=0;bottom=1;" parent="4oy-zTbJ77d2xvRVHOVI-47" vertex="1">
          <mxGeometry y="60" width="180" height="30" as="geometry" />
        </mxCell>
        <mxCell id="4oy-zTbJ77d2xvRVHOVI-52" value="FK, int" style="shape=partialRectangle;connectable=0;fillColor=none;top=0;left=0;bottom=0;right=0;fontStyle=1;overflow=hidden;" parent="4oy-zTbJ77d2xvRVHOVI-51" vertex="1">
          <mxGeometry width="80" height="30" as="geometry">
            <mxRectangle width="80" height="30" as="alternateBounds" />
          </mxGeometry>
        </mxCell>
        <mxCell id="4oy-zTbJ77d2xvRVHOVI-53" value="IdLogin" style="shape=partialRectangle;connectable=0;fillColor=none;top=0;left=0;bottom=0;right=0;align=left;spacingLeft=6;fontStyle=5;overflow=hidden;" parent="4oy-zTbJ77d2xvRVHOVI-51" vertex="1">
          <mxGeometry x="80" width="100" height="30" as="geometry">
            <mxRectangle width="100" height="30" as="alternateBounds" />
          </mxGeometry>
        </mxCell>
        <mxCell id="4oy-zTbJ77d2xvRVHOVI-172" style="shape=tableRow;horizontal=0;startSize=0;swimlaneHead=0;swimlaneBody=0;fillColor=none;collapsible=0;dropTarget=0;points=[[0,0.5],[1,0.5]];portConstraint=eastwest;top=0;left=0;right=0;bottom=0;" parent="4oy-zTbJ77d2xvRVHOVI-47" vertex="1">
          <mxGeometry y="90" width="180" height="30" as="geometry" />
        </mxCell>
        <mxCell id="4oy-zTbJ77d2xvRVHOVI-173" value="varChar" style="shape=partialRectangle;connectable=0;fillColor=none;top=0;left=0;bottom=0;right=0;editable=1;overflow=hidden;" parent="4oy-zTbJ77d2xvRVHOVI-172" vertex="1">
          <mxGeometry width="80" height="30" as="geometry">
            <mxRectangle width="80" height="30" as="alternateBounds" />
          </mxGeometry>
        </mxCell>
        <mxCell id="4oy-zTbJ77d2xvRVHOVI-174" value="NombreUsuario" style="shape=partialRectangle;connectable=0;fillColor=none;top=0;left=0;bottom=0;right=0;align=left;spacingLeft=6;overflow=hidden;" parent="4oy-zTbJ77d2xvRVHOVI-172" vertex="1">
          <mxGeometry x="80" width="100" height="30" as="geometry">
            <mxRectangle width="100" height="30" as="alternateBounds" />
          </mxGeometry>
        </mxCell>
        <mxCell id="4oy-zTbJ77d2xvRVHOVI-54" value="" style="shape=tableRow;horizontal=0;startSize=0;swimlaneHead=0;swimlaneBody=0;fillColor=none;collapsible=0;dropTarget=0;points=[[0,0.5],[1,0.5]];portConstraint=eastwest;top=0;left=0;right=0;bottom=0;" parent="4oy-zTbJ77d2xvRVHOVI-47" vertex="1">
          <mxGeometry y="120" width="180" height="30" as="geometry" />
        </mxCell>
        <mxCell id="4oy-zTbJ77d2xvRVHOVI-55" value="varChar" style="shape=partialRectangle;connectable=0;fillColor=none;top=0;left=0;bottom=0;right=0;editable=1;overflow=hidden;" parent="4oy-zTbJ77d2xvRVHOVI-54" vertex="1">
          <mxGeometry width="80" height="30" as="geometry">
            <mxRectangle width="80" height="30" as="alternateBounds" />
          </mxGeometry>
        </mxCell>
        <mxCell id="4oy-zTbJ77d2xvRVHOVI-56" value="Tipo" style="shape=partialRectangle;connectable=0;fillColor=none;top=0;left=0;bottom=0;right=0;align=left;spacingLeft=6;overflow=hidden;" parent="4oy-zTbJ77d2xvRVHOVI-54" vertex="1">
          <mxGeometry x="80" width="100" height="30" as="geometry">
            <mxRectangle width="100" height="30" as="alternateBounds" />
          </mxGeometry>
        </mxCell>
        <mxCell id="4oy-zTbJ77d2xvRVHOVI-57" value="" style="shape=tableRow;horizontal=0;startSize=0;swimlaneHead=0;swimlaneBody=0;fillColor=none;collapsible=0;dropTarget=0;points=[[0,0.5],[1,0.5]];portConstraint=eastwest;top=0;left=0;right=0;bottom=0;" parent="4oy-zTbJ77d2xvRVHOVI-47" vertex="1">
          <mxGeometry y="150" width="180" height="30" as="geometry" />
        </mxCell>
        <mxCell id="4oy-zTbJ77d2xvRVHOVI-58" value="int, IdClient" style="shape=partialRectangle;connectable=0;fillColor=none;top=0;left=0;bottom=0;right=0;editable=1;overflow=hidden;" parent="4oy-zTbJ77d2xvRVHOVI-57" vertex="1">
          <mxGeometry width="80" height="30" as="geometry">
            <mxRectangle width="80" height="30" as="alternateBounds" />
          </mxGeometry>
        </mxCell>
        <mxCell id="4oy-zTbJ77d2xvRVHOVI-59" value="1er Partner" style="shape=partialRectangle;connectable=0;fillColor=none;top=0;left=0;bottom=0;right=0;align=left;spacingLeft=6;overflow=hidden;" parent="4oy-zTbJ77d2xvRVHOVI-57" vertex="1">
          <mxGeometry x="80" width="100" height="30" as="geometry">
            <mxRectangle width="100" height="30" as="alternateBounds" />
          </mxGeometry>
        </mxCell>
        <mxCell id="4oy-zTbJ77d2xvRVHOVI-107" style="shape=tableRow;horizontal=0;startSize=0;swimlaneHead=0;swimlaneBody=0;fillColor=none;collapsible=0;dropTarget=0;points=[[0,0.5],[1,0.5]];portConstraint=eastwest;top=0;left=0;right=0;bottom=0;" parent="4oy-zTbJ77d2xvRVHOVI-47" vertex="1">
          <mxGeometry y="180" width="180" height="30" as="geometry" />
        </mxCell>
        <mxCell id="4oy-zTbJ77d2xvRVHOVI-108" value="int, IdClient" style="shape=partialRectangle;connectable=0;fillColor=none;top=0;left=0;bottom=0;right=0;editable=1;overflow=hidden;" parent="4oy-zTbJ77d2xvRVHOVI-107" vertex="1">
          <mxGeometry width="80" height="30" as="geometry">
            <mxRectangle width="80" height="30" as="alternateBounds" />
          </mxGeometry>
        </mxCell>
        <mxCell id="4oy-zTbJ77d2xvRVHOVI-109" value="2do Partner" style="shape=partialRectangle;connectable=0;fillColor=none;top=0;left=0;bottom=0;right=0;align=left;spacingLeft=6;overflow=hidden;" parent="4oy-zTbJ77d2xvRVHOVI-107" vertex="1">
          <mxGeometry x="80" width="100" height="30" as="geometry">
            <mxRectangle width="100" height="30" as="alternateBounds" />
          </mxGeometry>
        </mxCell>
        <mxCell id="4oy-zTbJ77d2xvRVHOVI-119" style="shape=tableRow;horizontal=0;startSize=0;swimlaneHead=0;swimlaneBody=0;fillColor=none;collapsible=0;dropTarget=0;points=[[0,0.5],[1,0.5]];portConstraint=eastwest;top=0;left=0;right=0;bottom=0;" parent="4oy-zTbJ77d2xvRVHOVI-47" vertex="1">
          <mxGeometry y="210" width="180" height="30" as="geometry" />
        </mxCell>
        <mxCell id="4oy-zTbJ77d2xvRVHOVI-120" value="int, IdClient" style="shape=partialRectangle;connectable=0;fillColor=none;top=0;left=0;bottom=0;right=0;editable=1;overflow=hidden;" parent="4oy-zTbJ77d2xvRVHOVI-119" vertex="1">
          <mxGeometry width="80" height="30" as="geometry">
            <mxRectangle width="80" height="30" as="alternateBounds" />
          </mxGeometry>
        </mxCell>
        <mxCell id="4oy-zTbJ77d2xvRVHOVI-121" value="3er Partner" style="shape=partialRectangle;connectable=0;fillColor=none;top=0;left=0;bottom=0;right=0;align=left;spacingLeft=6;overflow=hidden;" parent="4oy-zTbJ77d2xvRVHOVI-119" vertex="1">
          <mxGeometry x="80" width="100" height="30" as="geometry">
            <mxRectangle width="100" height="30" as="alternateBounds" />
          </mxGeometry>
        </mxCell>
        <mxCell id="4oy-zTbJ77d2xvRVHOVI-73" value="BD server" style="text;html=1;align=center;verticalAlign=middle;resizable=0;points=[];autosize=1;strokeColor=none;fillColor=none;" parent="1" vertex="1">
          <mxGeometry x="70" y="-610" width="70" height="20" as="geometry" />
        </mxCell>
        <mxCell id="4oy-zTbJ77d2xvRVHOVI-74" value="BD cliente" style="text;html=1;align=center;verticalAlign=middle;resizable=0;points=[];autosize=1;strokeColor=none;fillColor=none;" parent="1" vertex="1">
          <mxGeometry x="75" y="-360" width="70" height="20" as="geometry" />
        </mxCell>
        <mxCell id="4oy-zTbJ77d2xvRVHOVI-112" value="" style="ellipse;whiteSpace=wrap;html=1;aspect=fixed;shadow=0;labelBorderColor=none;sketch=0;strokeWidth=1;fillColor=none;" parent="1" vertex="1">
          <mxGeometry x="1340" y="-560" width="80" height="80" as="geometry" />
        </mxCell>
        <mxCell id="4oy-zTbJ77d2xvRVHOVI-113" value="" style="ellipse;whiteSpace=wrap;html=1;aspect=fixed;shadow=0;labelBorderColor=none;sketch=0;strokeWidth=1;fillColor=none;" parent="1" vertex="1">
          <mxGeometry x="1210" y="-430" width="80" height="80" as="geometry" />
        </mxCell>
        <mxCell id="4oy-zTbJ77d2xvRVHOVI-114" value="" style="ellipse;whiteSpace=wrap;html=1;aspect=fixed;shadow=0;labelBorderColor=none;sketch=0;strokeWidth=1;fillColor=none;" parent="1" vertex="1">
          <mxGeometry x="1340" y="-430" width="80" height="80" as="geometry" />
        </mxCell>
        <mxCell id="4oy-zTbJ77d2xvRVHOVI-115" value="" style="ellipse;whiteSpace=wrap;html=1;aspect=fixed;shadow=0;labelBorderColor=none;sketch=0;strokeWidth=1;fillColor=none;" parent="1" vertex="1">
          <mxGeometry x="1470" y="-430" width="80" height="80" as="geometry" />
        </mxCell>
        <mxCell id="4oy-zTbJ77d2xvRVHOVI-147" value="Transacciones" style="shape=table;startSize=30;container=1;collapsible=1;childLayout=tableLayout;fixedRows=1;rowLines=0;fontStyle=1;align=center;resizeLast=1;" parent="1" vertex="1">
          <mxGeometry x="670" y="-600" width="370" height="250" as="geometry" />
        </mxCell>
        <mxCell id="4oy-zTbJ77d2xvRVHOVI-148" value="" style="shape=tableRow;horizontal=0;startSize=0;swimlaneHead=0;swimlaneBody=0;fillColor=none;collapsible=0;dropTarget=0;points=[[0,0.5],[1,0.5]];portConstraint=eastwest;top=0;left=0;right=0;bottom=0;" parent="4oy-zTbJ77d2xvRVHOVI-147" vertex="1">
          <mxGeometry y="30" width="370" height="30" as="geometry" />
        </mxCell>
        <mxCell id="4oy-zTbJ77d2xvRVHOVI-149" value="PK, Int" style="shape=partialRectangle;connectable=0;fillColor=none;top=0;left=0;bottom=0;right=0;fontStyle=1;overflow=hidden;" parent="4oy-zTbJ77d2xvRVHOVI-148" vertex="1">
          <mxGeometry width="150" height="30" as="geometry">
            <mxRectangle width="150" height="30" as="alternateBounds" />
          </mxGeometry>
        </mxCell>
        <mxCell id="4oy-zTbJ77d2xvRVHOVI-150" value="NroTransaccion" style="shape=partialRectangle;connectable=0;fillColor=none;top=0;left=0;bottom=0;right=0;align=left;spacingLeft=6;fontStyle=5;overflow=hidden;" parent="4oy-zTbJ77d2xvRVHOVI-148" vertex="1">
          <mxGeometry x="150" width="220" height="30" as="geometry">
            <mxRectangle width="220" height="30" as="alternateBounds" />
          </mxGeometry>
        </mxCell>
        <mxCell id="4oy-zTbJ77d2xvRVHOVI-166" style="shape=tableRow;horizontal=0;startSize=0;swimlaneHead=0;swimlaneBody=0;fillColor=none;collapsible=0;dropTarget=0;points=[[0,0.5],[1,0.5]];portConstraint=eastwest;top=0;left=0;right=0;bottom=0;" parent="4oy-zTbJ77d2xvRVHOVI-147" vertex="1">
          <mxGeometry y="60" width="370" height="30" as="geometry" />
        </mxCell>
        <mxCell id="4oy-zTbJ77d2xvRVHOVI-167" value="FK, int IdUsuario" style="shape=partialRectangle;connectable=0;fillColor=none;top=0;left=0;bottom=0;right=0;fontStyle=1;overflow=hidden;" parent="4oy-zTbJ77d2xvRVHOVI-166" vertex="1">
          <mxGeometry width="150" height="30" as="geometry">
            <mxRectangle width="150" height="30" as="alternateBounds" />
          </mxGeometry>
        </mxCell>
        <mxCell id="4oy-zTbJ77d2xvRVHOVI-168" value="De" style="shape=partialRectangle;connectable=0;fillColor=none;top=0;left=0;bottom=0;right=0;align=left;spacingLeft=6;fontStyle=5;overflow=hidden;" parent="4oy-zTbJ77d2xvRVHOVI-166" vertex="1">
          <mxGeometry x="150" width="220" height="30" as="geometry">
            <mxRectangle width="220" height="30" as="alternateBounds" />
          </mxGeometry>
        </mxCell>
        <mxCell id="4oy-zTbJ77d2xvRVHOVI-151" value="" style="shape=tableRow;horizontal=0;startSize=0;swimlaneHead=0;swimlaneBody=0;fillColor=none;collapsible=0;dropTarget=0;points=[[0,0.5],[1,0.5]];portConstraint=eastwest;top=0;left=0;right=0;bottom=1;" parent="4oy-zTbJ77d2xvRVHOVI-147" vertex="1">
          <mxGeometry y="90" width="370" height="30" as="geometry" />
        </mxCell>
        <mxCell id="4oy-zTbJ77d2xvRVHOVI-152" value="FK, int IdUsuario" style="shape=partialRectangle;connectable=0;fillColor=none;top=0;left=0;bottom=0;right=0;fontStyle=1;overflow=hidden;" parent="4oy-zTbJ77d2xvRVHOVI-151" vertex="1">
          <mxGeometry width="150" height="30" as="geometry">
            <mxRectangle width="150" height="30" as="alternateBounds" />
          </mxGeometry>
        </mxCell>
        <mxCell id="4oy-zTbJ77d2xvRVHOVI-153" value="A" style="shape=partialRectangle;connectable=0;fillColor=none;top=0;left=0;bottom=0;right=0;align=left;spacingLeft=6;fontStyle=5;overflow=hidden;" parent="4oy-zTbJ77d2xvRVHOVI-151" vertex="1">
          <mxGeometry x="150" width="220" height="30" as="geometry">
            <mxRectangle width="220" height="30" as="alternateBounds" />
          </mxGeometry>
        </mxCell>
        <mxCell id="4oy-zTbJ77d2xvRVHOVI-154" value="" style="shape=tableRow;horizontal=0;startSize=0;swimlaneHead=0;swimlaneBody=0;fillColor=none;collapsible=0;dropTarget=0;points=[[0,0.5],[1,0.5]];portConstraint=eastwest;top=0;left=0;right=0;bottom=0;" parent="4oy-zTbJ77d2xvRVHOVI-147" vertex="1">
          <mxGeometry y="120" width="370" height="30" as="geometry" />
        </mxCell>
        <mxCell id="4oy-zTbJ77d2xvRVHOVI-155" value="varChar" style="shape=partialRectangle;connectable=0;fillColor=none;top=0;left=0;bottom=0;right=0;editable=1;overflow=hidden;" parent="4oy-zTbJ77d2xvRVHOVI-154" vertex="1">
          <mxGeometry width="150" height="30" as="geometry">
            <mxRectangle width="150" height="30" as="alternateBounds" />
          </mxGeometry>
        </mxCell>
        <mxCell id="4oy-zTbJ77d2xvRVHOVI-156" value="Medio" style="shape=partialRectangle;connectable=0;fillColor=none;top=0;left=0;bottom=0;right=0;align=left;spacingLeft=6;overflow=hidden;" parent="4oy-zTbJ77d2xvRVHOVI-154" vertex="1">
          <mxGeometry x="150" width="220" height="30" as="geometry">
            <mxRectangle width="220" height="30" as="alternateBounds" />
          </mxGeometry>
        </mxCell>
        <mxCell id="4oy-zTbJ77d2xvRVHOVI-157" value="" style="shape=tableRow;horizontal=0;startSize=0;swimlaneHead=0;swimlaneBody=0;fillColor=none;collapsible=0;dropTarget=0;points=[[0,0.5],[1,0.5]];portConstraint=eastwest;top=0;left=0;right=0;bottom=0;" parent="4oy-zTbJ77d2xvRVHOVI-147" vertex="1">
          <mxGeometry y="150" width="370" height="30" as="geometry" />
        </mxCell>
        <mxCell id="4oy-zTbJ77d2xvRVHOVI-158" value="Float" style="shape=partialRectangle;connectable=0;fillColor=none;top=0;left=0;bottom=0;right=0;editable=1;overflow=hidden;" parent="4oy-zTbJ77d2xvRVHOVI-157" vertex="1">
          <mxGeometry width="150" height="30" as="geometry">
            <mxRectangle width="150" height="30" as="alternateBounds" />
          </mxGeometry>
        </mxCell>
        <mxCell id="4oy-zTbJ77d2xvRVHOVI-159" value="Monto" style="shape=partialRectangle;connectable=0;fillColor=none;top=0;left=0;bottom=0;right=0;align=left;spacingLeft=6;overflow=hidden;" parent="4oy-zTbJ77d2xvRVHOVI-157" vertex="1">
          <mxGeometry x="150" width="220" height="30" as="geometry">
            <mxRectangle width="220" height="30" as="alternateBounds" />
          </mxGeometry>
        </mxCell>
        <mxCell id="4oy-zTbJ77d2xvRVHOVI-160" style="shape=tableRow;horizontal=0;startSize=0;swimlaneHead=0;swimlaneBody=0;fillColor=none;collapsible=0;dropTarget=0;points=[[0,0.5],[1,0.5]];portConstraint=eastwest;top=0;left=0;right=0;bottom=0;" parent="4oy-zTbJ77d2xvRVHOVI-147" vertex="1">
          <mxGeometry y="180" width="370" height="30" as="geometry" />
        </mxCell>
        <mxCell id="4oy-zTbJ77d2xvRVHOVI-161" value="int, IdClient" style="shape=partialRectangle;connectable=0;fillColor=none;top=0;left=0;bottom=0;right=0;editable=1;overflow=hidden;" parent="4oy-zTbJ77d2xvRVHOVI-160" vertex="1">
          <mxGeometry width="150" height="30" as="geometry">
            <mxRectangle width="150" height="30" as="alternateBounds" />
          </mxGeometry>
        </mxCell>
        <mxCell id="4oy-zTbJ77d2xvRVHOVI-162" value="2do Partner" style="shape=partialRectangle;connectable=0;fillColor=none;top=0;left=0;bottom=0;right=0;align=left;spacingLeft=6;overflow=hidden;" parent="4oy-zTbJ77d2xvRVHOVI-160" vertex="1">
          <mxGeometry x="150" width="220" height="30" as="geometry">
            <mxRectangle width="220" height="30" as="alternateBounds" />
          </mxGeometry>
        </mxCell>
        <mxCell id="4oy-zTbJ77d2xvRVHOVI-163" style="shape=tableRow;horizontal=0;startSize=0;swimlaneHead=0;swimlaneBody=0;fillColor=none;collapsible=0;dropTarget=0;points=[[0,0.5],[1,0.5]];portConstraint=eastwest;top=0;left=0;right=0;bottom=0;" parent="4oy-zTbJ77d2xvRVHOVI-147" vertex="1">
          <mxGeometry y="210" width="370" height="30" as="geometry" />
        </mxCell>
        <mxCell id="4oy-zTbJ77d2xvRVHOVI-164" value="int, IdClient" style="shape=partialRectangle;connectable=0;fillColor=none;top=0;left=0;bottom=0;right=0;editable=1;overflow=hidden;" parent="4oy-zTbJ77d2xvRVHOVI-163" vertex="1">
          <mxGeometry width="150" height="30" as="geometry">
            <mxRectangle width="150" height="30" as="alternateBounds" />
          </mxGeometry>
        </mxCell>
        <mxCell id="4oy-zTbJ77d2xvRVHOVI-165" value="3er Partner" style="shape=partialRectangle;connectable=0;fillColor=none;top=0;left=0;bottom=0;right=0;align=left;spacingLeft=6;overflow=hidden;" parent="4oy-zTbJ77d2xvRVHOVI-163" vertex="1">
          <mxGeometry x="150" width="220" height="30" as="geometry">
            <mxRectangle width="220" height="30" as="alternateBounds" />
          </mxGeometry>
        </mxCell>
        <mxCell id="u3QiXLIXFJa3NCLKDgft-1" value="Productos" style="shape=table;startSize=30;container=1;collapsible=1;childLayout=tableLayout;fixedRows=1;rowLines=0;fontStyle=1;align=center;resizeLast=1;" parent="1" vertex="1">
          <mxGeometry x="429" y="-300" width="180" height="250" as="geometry" />
        </mxCell>
        <mxCell id="u3QiXLIXFJa3NCLKDgft-2" value="" style="shape=tableRow;horizontal=0;startSize=0;swimlaneHead=0;swimlaneBody=0;fillColor=none;collapsible=0;dropTarget=0;points=[[0,0.5],[1,0.5]];portConstraint=eastwest;top=0;left=0;right=0;bottom=0;" parent="u3QiXLIXFJa3NCLKDgft-1" vertex="1">
          <mxGeometry y="30" width="180" height="30" as="geometry" />
        </mxCell>
        <mxCell id="u3QiXLIXFJa3NCLKDgft-3" value="PK, Int" style="shape=partialRectangle;connectable=0;fillColor=none;top=0;left=0;bottom=0;right=0;fontStyle=1;overflow=hidden;" parent="u3QiXLIXFJa3NCLKDgft-2" vertex="1">
          <mxGeometry width="80" height="30" as="geometry">
            <mxRectangle width="80" height="30" as="alternateBounds" />
          </mxGeometry>
        </mxCell>
        <mxCell id="u3QiXLIXFJa3NCLKDgft-4" value="IdUsuario" style="shape=partialRectangle;connectable=0;fillColor=none;top=0;left=0;bottom=0;right=0;align=left;spacingLeft=6;fontStyle=5;overflow=hidden;" parent="u3QiXLIXFJa3NCLKDgft-2" vertex="1">
          <mxGeometry x="80" width="100" height="30" as="geometry">
            <mxRectangle width="100" height="30" as="alternateBounds" />
          </mxGeometry>
        </mxCell>
        <mxCell id="u3QiXLIXFJa3NCLKDgft-5" value="" style="shape=tableRow;horizontal=0;startSize=0;swimlaneHead=0;swimlaneBody=0;fillColor=none;collapsible=0;dropTarget=0;points=[[0,0.5],[1,0.5]];portConstraint=eastwest;top=0;left=0;right=0;bottom=1;" parent="u3QiXLIXFJa3NCLKDgft-1" vertex="1">
          <mxGeometry y="60" width="180" height="30" as="geometry" />
        </mxCell>
        <mxCell id="u3QiXLIXFJa3NCLKDgft-6" value="FK, int" style="shape=partialRectangle;connectable=0;fillColor=none;top=0;left=0;bottom=0;right=0;fontStyle=1;overflow=hidden;" parent="u3QiXLIXFJa3NCLKDgft-5" vertex="1">
          <mxGeometry width="80" height="30" as="geometry">
            <mxRectangle width="80" height="30" as="alternateBounds" />
          </mxGeometry>
        </mxCell>
        <mxCell id="u3QiXLIXFJa3NCLKDgft-7" value="IdLogin" style="shape=partialRectangle;connectable=0;fillColor=none;top=0;left=0;bottom=0;right=0;align=left;spacingLeft=6;fontStyle=5;overflow=hidden;" parent="u3QiXLIXFJa3NCLKDgft-5" vertex="1">
          <mxGeometry x="80" width="100" height="30" as="geometry">
            <mxRectangle width="100" height="30" as="alternateBounds" />
          </mxGeometry>
        </mxCell>
        <mxCell id="u3QiXLIXFJa3NCLKDgft-8" style="shape=tableRow;horizontal=0;startSize=0;swimlaneHead=0;swimlaneBody=0;fillColor=none;collapsible=0;dropTarget=0;points=[[0,0.5],[1,0.5]];portConstraint=eastwest;top=0;left=0;right=0;bottom=0;" parent="u3QiXLIXFJa3NCLKDgft-1" vertex="1">
          <mxGeometry y="90" width="180" height="30" as="geometry" />
        </mxCell>
        <mxCell id="u3QiXLIXFJa3NCLKDgft-9" value="varChar" style="shape=partialRectangle;connectable=0;fillColor=none;top=0;left=0;bottom=0;right=0;editable=1;overflow=hidden;" parent="u3QiXLIXFJa3NCLKDgft-8" vertex="1">
          <mxGeometry width="80" height="30" as="geometry">
            <mxRectangle width="80" height="30" as="alternateBounds" />
          </mxGeometry>
        </mxCell>
        <mxCell id="u3QiXLIXFJa3NCLKDgft-10" value="NombreUsuario" style="shape=partialRectangle;connectable=0;fillColor=none;top=0;left=0;bottom=0;right=0;align=left;spacingLeft=6;overflow=hidden;" parent="u3QiXLIXFJa3NCLKDgft-8" vertex="1">
          <mxGeometry x="80" width="100" height="30" as="geometry">
            <mxRectangle width="100" height="30" as="alternateBounds" />
          </mxGeometry>
        </mxCell>
        <mxCell id="u3QiXLIXFJa3NCLKDgft-11" value="" style="shape=tableRow;horizontal=0;startSize=0;swimlaneHead=0;swimlaneBody=0;fillColor=none;collapsible=0;dropTarget=0;points=[[0,0.5],[1,0.5]];portConstraint=eastwest;top=0;left=0;right=0;bottom=0;" parent="u3QiXLIXFJa3NCLKDgft-1" vertex="1">
          <mxGeometry y="120" width="180" height="30" as="geometry" />
        </mxCell>
        <mxCell id="u3QiXLIXFJa3NCLKDgft-12" value="varChar" style="shape=partialRectangle;connectable=0;fillColor=none;top=0;left=0;bottom=0;right=0;editable=1;overflow=hidden;" parent="u3QiXLIXFJa3NCLKDgft-11" vertex="1">
          <mxGeometry width="80" height="30" as="geometry">
            <mxRectangle width="80" height="30" as="alternateBounds" />
          </mxGeometry>
        </mxCell>
        <mxCell id="u3QiXLIXFJa3NCLKDgft-13" value="Tipo" style="shape=partialRectangle;connectable=0;fillColor=none;top=0;left=0;bottom=0;right=0;align=left;spacingLeft=6;overflow=hidden;" parent="u3QiXLIXFJa3NCLKDgft-11" vertex="1">
          <mxGeometry x="80" width="100" height="30" as="geometry">
            <mxRectangle width="100" height="30" as="alternateBounds" />
          </mxGeometry>
        </mxCell>
        <mxCell id="u3QiXLIXFJa3NCLKDgft-14" value="" style="shape=tableRow;horizontal=0;startSize=0;swimlaneHead=0;swimlaneBody=0;fillColor=none;collapsible=0;dropTarget=0;points=[[0,0.5],[1,0.5]];portConstraint=eastwest;top=0;left=0;right=0;bottom=0;" parent="u3QiXLIXFJa3NCLKDgft-1" vertex="1">
          <mxGeometry y="150" width="180" height="30" as="geometry" />
        </mxCell>
        <mxCell id="u3QiXLIXFJa3NCLKDgft-15" value="int, IdClient" style="shape=partialRectangle;connectable=0;fillColor=none;top=0;left=0;bottom=0;right=0;editable=1;overflow=hidden;" parent="u3QiXLIXFJa3NCLKDgft-14" vertex="1">
          <mxGeometry width="80" height="30" as="geometry">
            <mxRectangle width="80" height="30" as="alternateBounds" />
          </mxGeometry>
        </mxCell>
        <mxCell id="u3QiXLIXFJa3NCLKDgft-16" value="1er Partner" style="shape=partialRectangle;connectable=0;fillColor=none;top=0;left=0;bottom=0;right=0;align=left;spacingLeft=6;overflow=hidden;" parent="u3QiXLIXFJa3NCLKDgft-14" vertex="1">
          <mxGeometry x="80" width="100" height="30" as="geometry">
            <mxRectangle width="100" height="30" as="alternateBounds" />
          </mxGeometry>
        </mxCell>
        <mxCell id="u3QiXLIXFJa3NCLKDgft-17" style="shape=tableRow;horizontal=0;startSize=0;swimlaneHead=0;swimlaneBody=0;fillColor=none;collapsible=0;dropTarget=0;points=[[0,0.5],[1,0.5]];portConstraint=eastwest;top=0;left=0;right=0;bottom=0;" parent="u3QiXLIXFJa3NCLKDgft-1" vertex="1">
          <mxGeometry y="180" width="180" height="30" as="geometry" />
        </mxCell>
        <mxCell id="u3QiXLIXFJa3NCLKDgft-18" value="int, IdClient" style="shape=partialRectangle;connectable=0;fillColor=none;top=0;left=0;bottom=0;right=0;editable=1;overflow=hidden;" parent="u3QiXLIXFJa3NCLKDgft-17" vertex="1">
          <mxGeometry width="80" height="30" as="geometry">
            <mxRectangle width="80" height="30" as="alternateBounds" />
          </mxGeometry>
        </mxCell>
        <mxCell id="u3QiXLIXFJa3NCLKDgft-19" value="2do Partner" style="shape=partialRectangle;connectable=0;fillColor=none;top=0;left=0;bottom=0;right=0;align=left;spacingLeft=6;overflow=hidden;" parent="u3QiXLIXFJa3NCLKDgft-17" vertex="1">
          <mxGeometry x="80" width="100" height="30" as="geometry">
            <mxRectangle width="100" height="30" as="alternateBounds" />
          </mxGeometry>
        </mxCell>
        <mxCell id="u3QiXLIXFJa3NCLKDgft-20" style="shape=tableRow;horizontal=0;startSize=0;swimlaneHead=0;swimlaneBody=0;fillColor=none;collapsible=0;dropTarget=0;points=[[0,0.5],[1,0.5]];portConstraint=eastwest;top=0;left=0;right=0;bottom=0;" parent="u3QiXLIXFJa3NCLKDgft-1" vertex="1">
          <mxGeometry y="210" width="180" height="30" as="geometry" />
        </mxCell>
        <mxCell id="u3QiXLIXFJa3NCLKDgft-21" value="int, IdClient" style="shape=partialRectangle;connectable=0;fillColor=none;top=0;left=0;bottom=0;right=0;editable=1;overflow=hidden;" parent="u3QiXLIXFJa3NCLKDgft-20" vertex="1">
          <mxGeometry width="80" height="30" as="geometry">
            <mxRectangle width="80" height="30" as="alternateBounds" />
          </mxGeometry>
        </mxCell>
        <mxCell id="u3QiXLIXFJa3NCLKDgft-22" value="3er Partner" style="shape=partialRectangle;connectable=0;fillColor=none;top=0;left=0;bottom=0;right=0;align=left;spacingLeft=6;overflow=hidden;" parent="u3QiXLIXFJa3NCLKDgft-20" vertex="1">
          <mxGeometry x="80" width="100" height="30" as="geometry">
            <mxRectangle width="100" height="30" as="alternateBounds" />
          </mxGeometry>
        </mxCell>
        <mxCell id="u3QiXLIXFJa3NCLKDgft-23" value="Transacciones" style="shape=table;startSize=30;container=1;collapsible=1;childLayout=tableLayout;fixedRows=1;rowLines=0;fontStyle=1;align=center;resizeLast=1;" parent="1" vertex="1">
          <mxGeometry x="740" y="-300" width="370" height="250" as="geometry" />
        </mxCell>
        <mxCell id="u3QiXLIXFJa3NCLKDgft-24" value="" style="shape=tableRow;horizontal=0;startSize=0;swimlaneHead=0;swimlaneBody=0;fillColor=none;collapsible=0;dropTarget=0;points=[[0,0.5],[1,0.5]];portConstraint=eastwest;top=0;left=0;right=0;bottom=0;" parent="u3QiXLIXFJa3NCLKDgft-23" vertex="1">
          <mxGeometry y="30" width="370" height="30" as="geometry" />
        </mxCell>
        <mxCell id="u3QiXLIXFJa3NCLKDgft-25" value="PK, Int" style="shape=partialRectangle;connectable=0;fillColor=none;top=0;left=0;bottom=0;right=0;fontStyle=1;overflow=hidden;" parent="u3QiXLIXFJa3NCLKDgft-24" vertex="1">
          <mxGeometry width="150" height="30" as="geometry">
            <mxRectangle width="150" height="30" as="alternateBounds" />
          </mxGeometry>
        </mxCell>
        <mxCell id="u3QiXLIXFJa3NCLKDgft-26" value="NroTransaccion" style="shape=partialRectangle;connectable=0;fillColor=none;top=0;left=0;bottom=0;right=0;align=left;spacingLeft=6;fontStyle=5;overflow=hidden;" parent="u3QiXLIXFJa3NCLKDgft-24" vertex="1">
          <mxGeometry x="150" width="220" height="30" as="geometry">
            <mxRectangle width="220" height="30" as="alternateBounds" />
          </mxGeometry>
        </mxCell>
        <mxCell id="u3QiXLIXFJa3NCLKDgft-27" style="shape=tableRow;horizontal=0;startSize=0;swimlaneHead=0;swimlaneBody=0;fillColor=none;collapsible=0;dropTarget=0;points=[[0,0.5],[1,0.5]];portConstraint=eastwest;top=0;left=0;right=0;bottom=0;" parent="u3QiXLIXFJa3NCLKDgft-23" vertex="1">
          <mxGeometry y="60" width="370" height="30" as="geometry" />
        </mxCell>
        <mxCell id="u3QiXLIXFJa3NCLKDgft-28" value="FK, int IdUsuario" style="shape=partialRectangle;connectable=0;fillColor=none;top=0;left=0;bottom=0;right=0;fontStyle=1;overflow=hidden;" parent="u3QiXLIXFJa3NCLKDgft-27" vertex="1">
          <mxGeometry width="150" height="30" as="geometry">
            <mxRectangle width="150" height="30" as="alternateBounds" />
          </mxGeometry>
        </mxCell>
        <mxCell id="u3QiXLIXFJa3NCLKDgft-29" value="De" style="shape=partialRectangle;connectable=0;fillColor=none;top=0;left=0;bottom=0;right=0;align=left;spacingLeft=6;fontStyle=5;overflow=hidden;" parent="u3QiXLIXFJa3NCLKDgft-27" vertex="1">
          <mxGeometry x="150" width="220" height="30" as="geometry">
            <mxRectangle width="220" height="30" as="alternateBounds" />
          </mxGeometry>
        </mxCell>
        <mxCell id="u3QiXLIXFJa3NCLKDgft-30" value="" style="shape=tableRow;horizontal=0;startSize=0;swimlaneHead=0;swimlaneBody=0;fillColor=none;collapsible=0;dropTarget=0;points=[[0,0.5],[1,0.5]];portConstraint=eastwest;top=0;left=0;right=0;bottom=1;" parent="u3QiXLIXFJa3NCLKDgft-23" vertex="1">
          <mxGeometry y="90" width="370" height="30" as="geometry" />
        </mxCell>
        <mxCell id="u3QiXLIXFJa3NCLKDgft-31" value="FK, int IdUsuario" style="shape=partialRectangle;connectable=0;fillColor=none;top=0;left=0;bottom=0;right=0;fontStyle=1;overflow=hidden;" parent="u3QiXLIXFJa3NCLKDgft-30" vertex="1">
          <mxGeometry width="150" height="30" as="geometry">
            <mxRectangle width="150" height="30" as="alternateBounds" />
          </mxGeometry>
        </mxCell>
        <mxCell id="u3QiXLIXFJa3NCLKDgft-32" value="A" style="shape=partialRectangle;connectable=0;fillColor=none;top=0;left=0;bottom=0;right=0;align=left;spacingLeft=6;fontStyle=5;overflow=hidden;" parent="u3QiXLIXFJa3NCLKDgft-30" vertex="1">
          <mxGeometry x="150" width="220" height="30" as="geometry">
            <mxRectangle width="220" height="30" as="alternateBounds" />
          </mxGeometry>
        </mxCell>
        <mxCell id="u3QiXLIXFJa3NCLKDgft-33" value="" style="shape=tableRow;horizontal=0;startSize=0;swimlaneHead=0;swimlaneBody=0;fillColor=none;collapsible=0;dropTarget=0;points=[[0,0.5],[1,0.5]];portConstraint=eastwest;top=0;left=0;right=0;bottom=0;" parent="u3QiXLIXFJa3NCLKDgft-23" vertex="1">
          <mxGeometry y="120" width="370" height="30" as="geometry" />
        </mxCell>
        <mxCell id="u3QiXLIXFJa3NCLKDgft-34" value="varChar" style="shape=partialRectangle;connectable=0;fillColor=none;top=0;left=0;bottom=0;right=0;editable=1;overflow=hidden;" parent="u3QiXLIXFJa3NCLKDgft-33" vertex="1">
          <mxGeometry width="150" height="30" as="geometry">
            <mxRectangle width="150" height="30" as="alternateBounds" />
          </mxGeometry>
        </mxCell>
        <mxCell id="u3QiXLIXFJa3NCLKDgft-35" value="Medio" style="shape=partialRectangle;connectable=0;fillColor=none;top=0;left=0;bottom=0;right=0;align=left;spacingLeft=6;overflow=hidden;" parent="u3QiXLIXFJa3NCLKDgft-33" vertex="1">
          <mxGeometry x="150" width="220" height="30" as="geometry">
            <mxRectangle width="220" height="30" as="alternateBounds" />
          </mxGeometry>
        </mxCell>
        <mxCell id="u3QiXLIXFJa3NCLKDgft-36" value="" style="shape=tableRow;horizontal=0;startSize=0;swimlaneHead=0;swimlaneBody=0;fillColor=none;collapsible=0;dropTarget=0;points=[[0,0.5],[1,0.5]];portConstraint=eastwest;top=0;left=0;right=0;bottom=0;" parent="u3QiXLIXFJa3NCLKDgft-23" vertex="1">
          <mxGeometry y="150" width="370" height="30" as="geometry" />
        </mxCell>
        <mxCell id="u3QiXLIXFJa3NCLKDgft-37" value="Float" style="shape=partialRectangle;connectable=0;fillColor=none;top=0;left=0;bottom=0;right=0;editable=1;overflow=hidden;" parent="u3QiXLIXFJa3NCLKDgft-36" vertex="1">
          <mxGeometry width="150" height="30" as="geometry">
            <mxRectangle width="150" height="30" as="alternateBounds" />
          </mxGeometry>
        </mxCell>
        <mxCell id="u3QiXLIXFJa3NCLKDgft-38" value="Monto" style="shape=partialRectangle;connectable=0;fillColor=none;top=0;left=0;bottom=0;right=0;align=left;spacingLeft=6;overflow=hidden;" parent="u3QiXLIXFJa3NCLKDgft-36" vertex="1">
          <mxGeometry x="150" width="220" height="30" as="geometry">
            <mxRectangle width="220" height="30" as="alternateBounds" />
          </mxGeometry>
        </mxCell>
        <mxCell id="u3QiXLIXFJa3NCLKDgft-39" style="shape=tableRow;horizontal=0;startSize=0;swimlaneHead=0;swimlaneBody=0;fillColor=none;collapsible=0;dropTarget=0;points=[[0,0.5],[1,0.5]];portConstraint=eastwest;top=0;left=0;right=0;bottom=0;" parent="u3QiXLIXFJa3NCLKDgft-23" vertex="1">
          <mxGeometry y="180" width="370" height="30" as="geometry" />
        </mxCell>
        <mxCell id="u3QiXLIXFJa3NCLKDgft-40" value="int, IdClient" style="shape=partialRectangle;connectable=0;fillColor=none;top=0;left=0;bottom=0;right=0;editable=1;overflow=hidden;" parent="u3QiXLIXFJa3NCLKDgft-39" vertex="1">
          <mxGeometry width="150" height="30" as="geometry">
            <mxRectangle width="150" height="30" as="alternateBounds" />
          </mxGeometry>
        </mxCell>
        <mxCell id="u3QiXLIXFJa3NCLKDgft-41" value="2do Partner" style="shape=partialRectangle;connectable=0;fillColor=none;top=0;left=0;bottom=0;right=0;align=left;spacingLeft=6;overflow=hidden;" parent="u3QiXLIXFJa3NCLKDgft-39" vertex="1">
          <mxGeometry x="150" width="220" height="30" as="geometry">
            <mxRectangle width="220" height="30" as="alternateBounds" />
          </mxGeometry>
        </mxCell>
        <mxCell id="u3QiXLIXFJa3NCLKDgft-42" style="shape=tableRow;horizontal=0;startSize=0;swimlaneHead=0;swimlaneBody=0;fillColor=none;collapsible=0;dropTarget=0;points=[[0,0.5],[1,0.5]];portConstraint=eastwest;top=0;left=0;right=0;bottom=0;" parent="u3QiXLIXFJa3NCLKDgft-23" vertex="1">
          <mxGeometry y="210" width="370" height="30" as="geometry" />
        </mxCell>
        <mxCell id="u3QiXLIXFJa3NCLKDgft-43" value="int, IdClient" style="shape=partialRectangle;connectable=0;fillColor=none;top=0;left=0;bottom=0;right=0;editable=1;overflow=hidden;" parent="u3QiXLIXFJa3NCLKDgft-42" vertex="1">
          <mxGeometry width="150" height="30" as="geometry">
            <mxRectangle width="150" height="30" as="alternateBounds" />
          </mxGeometry>
        </mxCell>
        <mxCell id="u3QiXLIXFJa3NCLKDgft-44" value="3er Partner" style="shape=partialRectangle;connectable=0;fillColor=none;top=0;left=0;bottom=0;right=0;align=left;spacingLeft=6;overflow=hidden;" parent="u3QiXLIXFJa3NCLKDgft-42" vertex="1">
          <mxGeometry x="150" width="220" height="30" as="geometry">
            <mxRectangle width="220" height="30" as="alternateBounds" />
          </mxGeometry>
        </mxCell>
        <mxCell id="Br2lUcDm1pbGumtv5cob-1" value="&lt;font style=&quot;font-size: 24px;&quot;&gt;Compartienda.com&lt;/font&gt;" style="text;html=1;align=center;verticalAlign=middle;resizable=0;points=[];autosize=1;strokeColor=none;fillColor=none;fontSize=11;fontFamily=Helvetica;fontColor=#1D3557;" vertex="1" parent="1">
          <mxGeometry x="30" y="-1620" width="220" height="20" as="geometry" />
        </mxCell>
        <mxCell id="Br2lUcDm1pbGumtv5cob-2" value="&lt;font style=&quot;font-size: 13px;&quot;&gt;Diagrama de clases&lt;/font&gt;" style="text;html=1;align=center;verticalAlign=middle;resizable=0;points=[];autosize=1;strokeColor=none;fillColor=none;fontSize=13;fontFamily=Helvetica;fontColor=#1D3557;" vertex="1" parent="1">
          <mxGeometry x="70" y="-1550" width="140" height="30" as="geometry" />
        </mxCell>
      </root>
    </mxGraphModel>
  </diagram>
</mxfile>
